<?xml version="1.0" standalone="no"?>
<!DOCTYPE svg PUBLIC "-//W3C//DTD SVG 20010904//EN"
 "http://www.w3.org/TR/2001/REC-SVG-20010904/DTD/svg10.dtd">
<svg version="1.0" xmlns="http://www.w3.org/2000/svg"
 width="920.000000pt" height="330.000000pt" viewBox="0 0 920.000000 330.000000"
 preserveAspectRatio="xMidYMid meet">

<g transform="translate(0.000000,330.000000) scale(0.100000,-0.100000)"
fill="#000000" stroke="none">
<path d="M415 2860 c-3 -5 3 -10 14 -10 12 0 21 5 21 10 0 6 -6 10 -14 10 -8
0 -18 -4 -21 -10z"/>
<path d="M595 2861 c-3 -5 -1 -12 5 -16 12 -7 30 2 30 16 0 12 -27 12 -35 0z"/>
<path d="M780 2855 c0 -17 2 -18 24 -9 23 9 20 24 -4 24 -11 0 -20 -7 -20 -15z"/>
<path d="M965 2861 c-10 -18 17 -23 33 -7 15 15 15 16 -5 16 -12 0 -24 -4 -28
-9z"/>
<path d="M1155 2861 c-3 -5 -1 -12 5 -16 12 -7 30 2 30 16 0 12 -27 12 -35 0z"/>
<path d="M1220 2841 c0 -11 4 -21 9 -21 18 0 21 18 6 30 -13 10 -15 9 -15 -9z"/>
<path d="M345 2837 c-17 -13 -17 -14 6 -20 20 -6 21 -9 9 -17 -8 -5 -27 -10
-41 -10 -15 0 -29 -7 -33 -15 -4 -12 3 -15 30 -15 19 0 45 5 56 11 15 8 22 8
28 -1 5 -8 11 0 19 20 9 27 8 31 -4 26 -9 -3 -19 3 -25 14 -13 24 -20 25 -45
7z"/>
<path d="M534 2835 c-18 -14 -18 -14 -1 -15 31 0 12 -25 -23 -30 -18 -3 -35
-11 -38 -17 -5 -16 61 -18 90 -2 16 9 23 8 29 -2 7 -11 9 -10 9 3 0 9 3 25 7
35 6 16 5 16 -10 4 -15 -11 -17 -11 -17 2 0 26 -24 38 -46 22z"/>
<path d="M720 2840 c-13 -9 -12 -12 4 -21 15 -9 16 -13 5 -20 -8 -5 -26 -9
-40 -9 -15 0 -29 -7 -33 -15 -8 -22 77 -21 95 1 12 14 14 14 19 -2 5 -15 9
-12 18 14 6 19 7 32 1 32 -5 0 -9 -6 -9 -12 -1 -7 -8 -1 -16 15 -16 30 -22 32
-44 17z"/>
<path d="M904 2835 c-18 -14 -18 -14 -1 -15 31 0 12 -25 -23 -30 -18 -3 -35
-11 -38 -17 -6 -19 69 -17 96 3 17 12 22 12 23 2 0 -7 4 -4 9 7 13 31 12 39
-5 25 -12 -10 -15 -10 -15 3 0 26 -24 38 -46 22z"/>
<path d="M1090 2840 c-13 -9 -12 -12 4 -21 15 -9 16 -13 5 -20 -8 -5 -26 -9
-40 -9 -15 0 -29 -7 -33 -15 -8 -21 77 -21 98 1 12 12 16 12 16 2 1 -8 6 -6
15 6 18 24 20 45 3 28 -9 -9 -14 -6 -22 10 -13 26 -26 31 -46 18z"/>
<path d="M1272 2826 c2 -8 -5 -21 -16 -29 -16 -12 -17 -17 -5 -38 11 -20 14
-21 17 -6 6 28 19 19 29 -20 4 -20 14 -38 21 -41 18 -6 16 69 -3 95 -10 14
-11 23 -4 25 6 2 -1 9 -15 16 -23 10 -26 10 -24 -2z"/>
<path d="M1348 2748 c-5 -57 -1 -78 13 -78 5 0 9 29 9 65 0 78 -16 87 -22 13z"/>
<path d="M1390 2774 c-12 -31 -13 -84 -1 -103 5 -7 26 -14 47 -15 l39 -1 3 58
c4 67 -8 87 -49 87 -22 0 -32 -6 -39 -26z m55 -25 c9 -27 -3 -91 -16 -84 -12
8 -12 105 0 105 5 0 13 -9 16 -21z"/>
<path d="M1500 2725 c0 -43 4 -75 10 -75 6 0 10 32 10 75 0 43 -4 75 -10 75
-6 0 -10 -32 -10 -75z"/>
<path d="M1547 2793 c-12 -20 -18 -75 -11 -108 6 -35 7 -36 48 -33 l41 3 3 58
c2 35 -2 64 -9 73 -12 15 -65 19 -72 7z m51 -57 c5 -38 -6 -78 -18 -71 -15 10
-13 108 3 103 6 -3 13 -17 15 -32z"/>
<path d="M1650 2725 c0 -43 4 -75 10 -75 6 0 10 32 10 75 0 43 -4 75 -10 75
-6 0 -10 -32 -10 -75z"/>
<path d="M1701 2786 c-7 -9 -11 -38 -9 -73 l3 -58 40 0 c36 0 40 3 49 33 6 22
5 45 -3 72 -10 34 -16 40 -40 40 -16 0 -34 -6 -40 -14z m47 -66 c-4 -67 -22
-69 -26 -2 -2 42 0 52 13 52 13 0 15 -10 13 -50z"/>
<path d="M1800 2725 c0 -43 4 -75 10 -75 6 0 10 32 10 75 0 43 -4 75 -10 75
-6 0 -10 -32 -10 -75z"/>
<path d="M1852 2788 c-14 -14 -16 -106 -3 -126 5 -8 22 -12 42 -10 28 2 35 8
43 36 6 22 5 45 -3 72 -10 34 -16 40 -39 40 -16 0 -33 -5 -40 -12z m46 -68
c-4 -60 -22 -71 -26 -16 -4 43 2 66 18 66 7 0 10 -19 8 -50z"/>
<path d="M1950 2726 c0 -62 3 -76 15 -76 13 0 15 12 13 72 -2 46 -7 73 -15 76
-10 3 -13 -16 -13 -72z"/>
<path d="M2000 2780 c-6 -11 -10 -44 -8 -73 l3 -52 42 -3 c41 -3 42 -2 49 34
4 20 3 53 -2 73 -8 31 -14 36 -41 39 -24 2 -34 -2 -43 -18z m50 -59 c0 -50
-13 -74 -24 -45 -8 20 -8 58 0 78 12 32 24 15 24 -33z"/>
<path d="M2100 2725 c0 -60 3 -75 15 -75 12 0 15 15 15 75 0 60 -3 75 -15 75
-12 0 -15 -15 -15 -75z"/>
<path d="M2151 2781 c-12 -21 -15 -90 -5 -115 4 -11 19 -16 45 -16 36 0 38 2
45 37 4 20 3 52 -2 72 -8 31 -14 36 -41 39 -23 2 -34 -2 -42 -17z m55 -36 c7
-30 -2 -75 -16 -75 -6 0 -10 23 -10 50 0 53 15 67 26 25z"/>
<path d="M2258 2776 c-9 -46 -3 -119 10 -123 9 -4 12 15 12 71 0 73 -13 102
-22 52z"/>
<path d="M2300 2781 c-12 -23 -13 -101 -1 -119 5 -8 23 -12 47 -10 l39 3 3 52
c2 29 -2 62 -8 73 -14 27 -65 27 -80 1z m52 -48 c5 -45 -1 -75 -13 -67 -12 7
-12 104 0 104 5 0 11 -17 13 -37z"/>
<path d="M2410 2725 c0 -43 4 -75 10 -75 6 0 10 32 10 75 0 43 -4 75 -10 75
-6 0 -10 -32 -10 -75z"/>
<path d="M2452 2783 c-4 -10 -7 -42 -6 -71 0 -56 11 -72 50 -72 32 0 44 20 44
78 0 51 -1 54 -35 68 -43 18 -44 18 -53 -3z m56 -47 c5 -38 -6 -78 -18 -71
-15 10 -13 108 3 103 6 -3 13 -17 15 -32z"/>
<path d="M2560 2696 c0 -31 5 -56 10 -56 6 0 10 22 10 49 0 28 -4 53 -10 56
-6 4 -10 -15 -10 -49z"/>
<path d="M265 2730 c-4 -6 18 -10 59 -10 37 0 66 4 66 10 0 6 -26 10 -59 10
-33 0 -63 -4 -66 -10z"/>
<path d="M450 2730 c0 -6 27 -10 60 -10 33 0 60 4 60 10 0 6 -27 10 -60 10
-33 0 -60 -4 -60 -10z"/>
<path d="M635 2730 c-4 -6 18 -10 59 -10 37 0 66 4 66 10 0 6 -26 10 -59 10
-33 0 -63 -4 -66 -10z"/>
<path d="M820 2730 c0 -6 27 -10 60 -10 33 0 60 4 60 10 0 6 -27 10 -60 10
-33 0 -60 -4 -60 -10z"/>
<path d="M1005 2730 c-4 -6 18 -10 59 -10 37 0 66 4 66 10 0 6 -26 10 -59 10
-33 0 -63 -4 -66 -10z"/>
<path d="M2593 2705 c3 -11 8 -30 12 -42 4 -14 14 -23 26 -23 20 0 20 1 2 31
-10 17 -24 36 -32 42 -11 10 -13 8 -8 -8z"/>
<path d="M268 2703 c-18 -5 -35 -64 -23 -82 7 -12 103 -15 129 -5 10 4 16 18
16 39 0 28 -5 35 -31 44 -32 11 -60 12 -91 4z m95 -48 c-4 -15 -96 -12 -101 3
-3 10 9 12 49 10 30 -2 53 -7 52 -13z"/>
<path d="M448 2698 c-15 -12 -22 -41 -19 -75 1 -16 103 -18 132 -3 23 13 25
52 4 70 -23 19 -97 24 -117 8z m97 -43 c0 -11 -69 -19 -92 -11 -8 3 -11 11 -8
16 8 14 100 9 100 -5z"/>
<path d="M639 2703 c-18 -4 -35 -66 -24 -83 7 -11 104 -14 129 -4 10 4 16 18
16 39 0 28 -5 35 -31 44 -32 11 -60 12 -90 4z m94 -48 c-2 -5 -25 -11 -53 -13
-40 -2 -50 0 -50 13 0 13 10 15 53 13 28 -2 51 -7 50 -13z"/>
<path d="M822 2702 c-14 -10 -33 -77 -24 -86 11 -11 128 -6 140 6 17 17 15 53
-3 68 -19 16 -96 24 -113 12z m93 -47 c0 -11 -69 -19 -92 -11 -8 3 -11 11 -8
16 8 14 100 9 100 -5z"/>
<path d="M1006 2697 c-10 -7 -18 -28 -19 -47 l-2 -35 49 -3 c69 -4 93 3 98 32
6 31 -1 42 -35 55 -38 15 -69 14 -91 -2z m97 -42 c-4 -15 -96 -12 -101 3 -3
10 9 12 49 10 30 -2 53 -7 52 -13z"/>
<path d="M1222 2656 c1 -10 8 -17 13 -17 15 1 12 24 -3 29 -9 3 -13 -2 -10
-12z"/>
<path d="M1280 2635 c10 -12 10 -15 -3 -15 -21 0 -38 -25 -31 -44 8 -20 24
-21 24 -1 0 29 18 14 27 -22 4 -20 14 -38 21 -41 17 -5 16 58 -3 84 -8 12 -11
24 -7 28 3 4 0 11 -8 16 -23 15 -34 12 -20 -5z"/>
<path d="M1396 2598 c-19 -27 -21 -102 -3 -115 23 -19 70 -25 78 -11 15 23 10
115 -7 132 -22 22 -50 20 -68 -6z m48 -24 c13 -34 3 -94 -15 -94 -5 0 -9 25
-9 55 0 53 11 72 24 39z"/>
<path d="M2580 2606 c0 -8 7 -16 15 -20 10 -4 15 1 15 14 0 11 -7 20 -15 20
-8 0 -15 -6 -15 -14z"/>
<path d="M2629 2596 c-9 -20 -9 -29 1 -41 20 -24 30 -18 30 19 0 44 -16 55
-31 22z"/>
<path d="M1347 2559 c-7 -53 -3 -69 14 -69 5 0 9 27 9 60 0 73 -15 79 -23 9z"/>
<path d="M1500 2535 c0 -43 4 -75 10 -75 6 0 10 32 10 75 0 43 -4 75 -10 75
-6 0 -10 -32 -10 -75z"/>
<path d="M1544 2596 c-3 -7 -4 -40 -2 -72 l3 -59 40 0 40 0 3 49 c5 79 -2 96
-44 96 -20 0 -37 -6 -40 -14z m54 -66 c-4 -63 -28 -65 -28 -2 0 27 3 52 7 56
14 14 24 -13 21 -54z"/>
<path d="M1650 2535 c0 -43 4 -75 10 -75 6 0 10 32 10 75 0 43 -4 75 -10 75
-6 0 -10 -32 -10 -75z"/>
<path d="M1696 2595 c-9 -24 -7 -108 3 -123 5 -8 22 -12 42 -10 29 3 34 7 42
39 5 20 4 51 0 70 -8 30 -14 34 -45 37 -26 2 -37 -2 -42 -13z m54 -66 c0 -37
-4 -49 -15 -49 -11 0 -15 12 -15 48 0 27 3 52 6 55 15 14 24 -7 24 -54z"/>
<path d="M1800 2535 c0 -43 4 -75 10 -75 6 0 10 32 10 75 0 43 -4 75 -10 75
-6 0 -10 -32 -10 -75z"/>
<path d="M1846 2595 c-8 -21 -8 -83 0 -113 6 -19 12 -23 42 -20 33 3 37 7 45
39 5 20 4 51 0 70 -8 30 -14 34 -45 37 -26 2 -37 -2 -42 -13z m54 -61 c0 -40
-4 -55 -12 -52 -14 5 -23 70 -14 94 12 32 26 11 26 -42z"/>
<path d="M1950 2535 c0 -55 3 -76 12 -73 17 6 17 140 1 145 -10 4 -13 -15 -13
-72z"/>
<path d="M2002 2598 c-12 -12 -16 -95 -6 -122 9 -24 71 -21 84 3 13 25 13 72
0 105 -7 20 -17 26 -38 26 -15 0 -33 -5 -40 -12z m48 -64 c0 -40 -4 -55 -12
-52 -14 5 -23 70 -14 94 12 32 26 11 26 -42z"/>
<path d="M2100 2535 c0 -60 3 -75 15 -75 12 0 15 15 15 75 0 60 -3 75 -15 75
-12 0 -15 -15 -15 -75z"/>
<path d="M2151 2591 c-12 -22 -14 -73 -5 -108 5 -19 13 -23 45 -23 36 0 38 2
45 37 4 20 3 52 -2 72 -8 31 -14 36 -41 39 -23 2 -34 -2 -42 -17z m53 -17 c13
-34 3 -94 -15 -94 -5 0 -9 25 -9 55 0 53 11 72 24 39z"/>
<path d="M2260 2545 c0 -36 0 -68 -1 -72 0 -4 4 -9 10 -11 7 -2 11 23 11 72 0
44 -4 76 -10 76 -6 0 -10 -28 -10 -65z"/>
<path d="M2300 2591 c-5 -11 -10 -36 -10 -56 0 -54 15 -75 54 -75 39 0 46 12
46 75 0 63 -7 75 -46 75 -23 0 -37 -6 -44 -19z m55 -35 c4 -19 4 -44 0 -55
-12 -39 -25 -21 -25 34 0 61 16 74 25 21z"/>
<path d="M2410 2535 c0 -43 4 -75 10 -75 6 0 10 32 10 75 0 43 -4 75 -10 75
-6 0 -10 -32 -10 -75z"/>
<path d="M2456 2602 c-11 -18 -16 -79 -8 -106 5 -20 18 -33 37 -39 38 -13 55
11 55 78 0 46 -3 53 -25 63 -30 14 -52 15 -59 4z m54 -64 c0 -32 -9 -58 -21
-58 -10 0 -12 93 -2 103 10 11 23 -14 23 -45z"/>
<path d="M240 2581 c0 -14 63 -22 109 -15 66 11 47 24 -34 24 -41 0 -75 -4
-75 -9z"/>
<path d="M420 2580 c0 -10 23 -14 102 -14 32 -1 48 3 48 12 0 8 -22 12 -75 12
-43 0 -75 -4 -75 -10z"/>
<path d="M610 2581 c0 -14 72 -23 114 -16 61 12 40 25 -39 25 -41 0 -75 -4
-75 -9z"/>
<path d="M790 2581 c0 -16 101 -28 134 -15 36 14 11 24 -59 24 -41 0 -75 -4
-75 -9z"/>
<path d="M980 2581 c0 -5 15 -12 33 -16 l32 -8 -30 -6 c-27 -6 -30 -10 -30
-46 0 -37 2 -40 35 -46 19 -4 51 -4 70 0 29 5 36 12 38 34 4 37 -13 57 -52 58
-28 2 -28 2 8 8 22 3 41 12 44 19 3 9 -16 12 -72 12 -42 0 -76 -4 -76 -9z
m118 -78 c2 -9 -10 -13 -42 -13 -43 0 -63 10 -49 24 12 11 86 2 91 -11z"/>
<path d="M2560 2516 c0 -31 5 -56 10 -56 6 0 10 22 10 49 0 28 -4 53 -10 56
-6 4 -10 -15 -10 -49z"/>
<path d="M244 2536 c-3 -8 -4 -27 -2 -42 4 -34 46 -48 105 -36 32 6 39 12 41
35 5 44 -13 57 -80 57 -41 0 -60 -4 -64 -14z m110 -22 c29 -11 5 -24 -45 -24
-46 0 -59 7 -42 23 8 9 66 9 87 1z"/>
<path d="M432 2538 c-15 -15 -16 -64 -2 -73 17 -11 120 -9 131 2 15 15 18 45
7 66 -7 13 -22 17 -66 17 -32 0 -63 -5 -70 -12z m116 -35 c2 -9 -11 -13 -47
-13 -48 0 -68 9 -54 24 12 12 96 2 101 -11z"/>
<path d="M614 2536 c-3 -8 -4 -27 -2 -42 2 -23 9 -29 38 -35 19 -4 51 -4 70 0
29 5 36 12 38 34 5 44 -13 57 -80 57 -41 0 -60 -4 -64 -14z m110 -22 c29 -11
5 -24 -45 -24 -46 0 -59 7 -42 23 8 9 66 9 87 1z"/>
<path d="M803 2543 c-16 -6 -17 -69 -2 -79 21 -12 116 -9 133 5 19 16 21 52 4
69 -12 12 -110 16 -135 5z m115 -40 c2 -9 -11 -13 -47 -13 -48 0 -68 9 -54 24
12 12 96 2 101 -11z"/>
<path d="M2598 2503 c6 -34 20 -53 39 -53 11 0 9 9 -8 40 -26 47 -38 51 -31
13z"/>
<path d="M4145 2486 c-104 -64 -106 -205 -5 -273 25 -17 47 -23 91 -23 51 0
63 4 94 31 52 46 68 83 63 141 -9 84 -65 139 -150 145 -43 3 -60 -1 -93 -21z"/>
<path d="M6329 2487 c-51 -34 -79 -82 -79 -134 0 -98 64 -163 158 -163 65 0
104 19 137 67 70 104 -9 253 -135 253 -32 0 -58 -7 -81 -23z"/>
<path d="M7769 2487 c-74 -50 -100 -136 -63 -214 52 -108 219 -113 283 -9 64
103 -17 246 -139 246 -32 0 -58 -7 -81 -23z"/>
<path d="M1220 2471 c0 -12 6 -21 15 -21 8 0 15 4 15 9 0 5 -7 14 -15 21 -13
10 -15 9 -15 -9z"/>
<path d="M1276 2446 c3 -8 -3 -16 -15 -19 -25 -6 -26 -16 -6 -43 13 -17 14
-17 15 -1 0 31 18 18 27 -20 4 -20 14 -38 21 -41 18 -6 15 69 -4 96 -14 20
-14 22 3 22 15 0 16 2 3 10 -23 15 -50 12 -44 -4z"/>
<path d="M3000 1731 l0 -721 318 0 c352 0 390 5 450 60 18 16 43 51 55 77 21
45 22 62 22 273 0 217 -1 227 -24 274 -16 33 -38 57 -68 76 l-43 28 34 20 c19
11 45 40 58 64 20 38 23 60 26 190 6 218 -27 301 -138 352 -42 20 -65 21 -367
24 l-323 3 0 -720z m508 497 c17 -17 17 -349 0 -366 -8 -8 -46 -12 -105 -12
l-93 0 0 195 0 195 93 0 c59 0 97 -4 105 -12z m20 -610 c15 -15 17 -350 2
-379 -10 -17 -22 -19 -115 -19 l-105 0 0 205 0 205 103 0 c67 0 107 -4 115
-12z"/>
<path d="M5142 2428 c3 -13 70 -337 149 -720 l144 -698 180 0 180 0 148 713
c81 391 147 715 147 720 0 4 -67 7 -148 7 l-149 0 -82 -497 c-45 -274 -86
-509 -90 -522 -5 -17 -34 138 -90 475 -45 274 -85 509 -88 522 -5 22 -8 22
-155 22 l-150 0 4 -22z"/>
<path d="M8700 2260 c0 -104 -2 -190 -3 -190 -2 0 -18 7 -34 15 -72 36 -200
42 -306 14 -47 -12 -102 -60 -130 -113 -22 -40 -22 -49 -22 -436 0 -366 1
-398 19 -430 50 -96 124 -133 266 -134 105 -1 167 16 220 61 l40 35 0 -36 0
-36 125 0 125 0 0 720 0 720 -150 0 -150 0 0 -190z m-12 -372 c9 -9 12 -98 12
-338 0 -240 -3 -329 -12 -338 -7 -7 -44 -12 -95 -12 -71 0 -84 3 -93 19 -6 12
-10 136 -10 331 0 195 4 319 10 331 9 16 22 19 93 19 51 0 88 -5 95 -12z"/>
<path d="M240 2425 c0 -12 15 -15 75 -15 60 0 75 3 75 15 0 12 -15 15 -75 15
-60 0 -75 -3 -75 -15z"/>
<path d="M420 2425 c0 -12 15 -15 75 -15 60 0 75 3 75 15 0 12 -15 15 -75 15
-60 0 -75 -3 -75 -15z"/>
<path d="M610 2425 c0 -12 15 -15 75 -15 60 0 75 3 75 15 0 12 -15 15 -75 15
-60 0 -75 -3 -75 -15z"/>
<path d="M790 2425 c0 -13 12 -15 78 -13 43 2 77 7 77 13 0 6 -34 11 -77 13
-66 2 -78 0 -78 -13z"/>
<path d="M980 2425 c0 -12 15 -15 75 -15 60 0 75 3 75 15 0 12 -15 15 -75 15
-60 0 -75 -3 -75 -15z"/>
<path d="M2580 2426 c0 -7 7 -19 15 -26 13 -11 15 -8 15 14 0 16 -5 26 -15 26
-8 0 -15 -6 -15 -14z"/>
<path d="M2630 2420 c-13 -25 -4 -60 16 -60 9 0 14 11 14 34 0 42 -15 54 -30
26z"/>
<path d="M1348 2378 c-6 -55 -2 -78 13 -78 5 0 9 29 9 65 0 78 -15 86 -22 13z"/>
<path d="M1390 2404 c-15 -39 -12 -91 6 -109 10 -10 29 -15 48 -13 30 3 31 4
34 61 4 67 -8 87 -49 87 -22 0 -32 -6 -39 -26z m56 -28 c8 -33 2 -69 -13 -74
-9 -2 -13 11 -13 47 0 53 15 69 26 27z"/>
<path d="M1500 2355 c0 -43 4 -75 10 -75 6 0 10 32 10 75 0 43 -4 75 -10 75
-6 0 -10 -32 -10 -75z"/>
<path d="M1551 2416 c-7 -9 -11 -38 -9 -73 l3 -58 40 0 40 0 3 58 c3 65 -8 87
-43 87 -12 0 -28 -6 -34 -14z m44 -66 c0 -26 -5 -45 -12 -47 -9 -3 -13 10 -13
47 0 37 4 50 13 48 7 -3 12 -22 12 -48z"/>
<path d="M1650 2355 c0 -43 4 -75 10 -75 6 0 10 32 10 75 0 43 -4 75 -10 75
-6 0 -10 -32 -10 -75z"/>
<path d="M1700 2410 c-6 -11 -10 -44 -8 -73 l3 -52 38 -3 c33 -3 38 0 48 25
11 30 4 90 -13 111 -16 19 -56 14 -68 -8z m50 -61 c0 -37 -4 -49 -15 -49 -11
0 -15 12 -15 48 0 27 3 52 6 55 15 14 24 -7 24 -54z"/>
<path d="M1800 2355 c0 -43 4 -75 10 -75 6 0 10 32 10 75 0 43 -4 75 -10 75
-6 0 -10 -32 -10 -75z"/>
<path d="M1852 2418 c-12 -12 -16 -95 -6 -122 4 -10 18 -16 40 -16 28 0 36 5
45 28 12 31 6 87 -12 108 -14 17 -51 18 -67 2z m48 -69 c0 -37 -4 -49 -15 -49
-11 0 -15 12 -15 48 0 27 3 52 6 55 15 14 24 -7 24 -54z"/>
<path d="M1958 2424 c-14 -13 -9 -144 5 -144 8 0 11 16 9 52 -5 87 -7 100 -14
92z"/>
<path d="M2001 2411 c-12 -21 -15 -90 -5 -115 4 -11 19 -16 45 -16 36 0 39 2
45 35 3 19 2 51 -3 72 -7 33 -13 38 -40 41 -23 2 -34 -2 -42 -17z m49 -62 c0
-36 -4 -49 -12 -47 -14 5 -23 70 -14 95 11 28 26 1 26 -48z"/>
<path d="M2107 2423 c-4 -3 -7 -37 -7 -75 0 -54 3 -68 15 -68 12 0 15 14 15
63 0 61 -10 94 -23 80z"/>
<path d="M2151 2411 c-12 -21 -15 -90 -5 -115 4 -11 19 -16 45 -16 36 0 38 2
45 37 4 20 3 52 -2 72 -8 31 -14 36 -41 39 -23 2 -34 -2 -42 -17z m57 -40 c5
-29 -6 -71 -17 -71 -9 0 -19 71 -13 90 6 18 27 5 30 -19z"/>
<path d="M2260 2355 c0 -43 4 -75 10 -75 6 0 10 32 10 75 0 43 -4 75 -10 75
-6 0 -10 -32 -10 -75z"/>
<path d="M2300 2404 c-12 -31 -13 -94 -1 -112 5 -8 23 -12 47 -10 l39 3 3 52
c4 67 -10 93 -49 93 -22 0 -32 -6 -39 -26z m56 -28 c8 -33 2 -69 -13 -74 -9
-2 -13 11 -13 47 0 53 15 69 26 27z"/>
<path d="M2410 2355 c0 -43 4 -75 10 -75 6 0 10 32 10 75 0 43 -4 75 -10 75
-6 0 -10 -32 -10 -75z"/>
<path d="M2448 2383 c-9 -66 1 -102 30 -110 41 -10 57 8 60 68 4 60 -11 79
-59 79 -23 0 -27 -5 -31 -37z m57 -33 c0 -26 -5 -45 -12 -47 -9 -3 -13 10 -13
47 0 37 4 50 13 48 7 -3 12 -22 12 -48z"/>
<path d="M247 2393 c-4 -3 -7 -23 -7 -44 0 -41 11 -49 65 -49 57 0 85 16 85
48 0 15 -5 33 -12 40 -13 13 -120 17 -131 5z m107 -29 c9 -3 13 -10 10 -15 -7
-12 -104 -12 -104 0 0 16 64 26 94 15z"/>
<path d="M432 2388 c-19 -19 -15 -66 7 -78 29 -15 94 -12 120 6 18 13 21 22
16 43 -4 14 -12 29 -18 33 -19 12 -112 9 -125 -4z m102 -24 c33 -13 14 -24
-39 -24 -30 0 -55 4 -55 9 0 16 64 26 94 15z"/>
<path d="M617 2393 c-4 -3 -7 -23 -7 -44 0 -30 4 -38 23 -43 34 -9 86 -7 108
4 22 12 26 59 7 78 -13 13 -120 17 -131 5z m97 -29 c32 -12 15 -24 -34 -24
-27 0 -50 4 -50 9 0 16 56 26 84 15z"/>
<path d="M803 2393 c-21 -8 -16 -71 6 -83 29 -15 93 -12 119 6 27 19 29 60 3
74 -20 10 -106 13 -128 3z m95 -29 c39 -11 24 -24 -27 -24 -72 0 -76 20 -6 29
6 0 20 -2 33 -5z"/>
<path d="M987 2393 c-4 -3 -7 -23 -7 -44 0 -30 4 -38 23 -43 34 -9 86 -7 108
4 22 12 26 59 7 78 -13 13 -120 17 -131 5z m100 -29 c13 -4 20 -10 17 -15 -7
-12 -104 -12 -104 0 0 16 50 25 87 15z"/>
<path d="M2560 2326 c0 -31 5 -56 10 -56 6 0 10 22 10 49 0 28 -4 53 -10 56
-6 4 -10 -15 -10 -49z"/>
<path d="M2600 2316 c0 -24 23 -56 41 -56 13 0 11 9 -12 46 -25 40 -29 42 -29
10z"/>
<path d="M4572 1758 c3 -518 5 -577 21 -619 19 -50 65 -102 109 -125 39 -20
168 -36 268 -32 l85 3 3 98 3 97 -70 0 c-53 0 -74 4 -92 19 l-24 19 -3 331 -3
331 96 0 95 0 0 105 0 105 -95 0 -95 0 0 120 0 120 -151 0 -150 0 3 -572z"/>
<path d="M1220 2280 c0 -13 5 -20 13 -17 6 2 12 10 12 17 0 7 -6 15 -12 18 -8
2 -13 -5 -13 -18z"/>
<path d="M240 2275 c0 -12 15 -15 75 -15 60 0 75 3 75 15 0 12 -15 15 -75 15
-60 0 -75 -3 -75 -15z"/>
<path d="M422 2278 c3 -9 30 -14 76 -16 60 -2 72 0 72 13 0 12 -14 15 -76 15
-56 0 -75 -3 -72 -12z"/>
<path d="M610 2275 c0 -12 15 -15 75 -15 60 0 75 3 75 15 0 12 -15 15 -75 15
-60 0 -75 -3 -75 -15z"/>
<path d="M790 2275 c0 -13 12 -15 78 -13 43 2 77 7 77 13 0 6 -34 11 -77 13
-66 2 -78 0 -78 -13z"/>
<path d="M980 2275 c0 -12 15 -15 75 -15 60 0 75 3 75 15 0 12 -15 15 -75 15
-60 0 -75 -3 -75 -15z"/>
<path d="M1273 2266 c2 -6 -5 -18 -16 -26 -17 -15 -18 -19 -6 -41 l14 -24 3
23 c5 33 20 27 28 -13 3 -19 12 -39 20 -46 12 -9 14 -5 14 28 0 21 -7 49 -16
61 -8 12 -10 22 -5 22 22 0 10 18 -14 23 -16 3 -24 0 -22 -7z"/>
<path d="M258 2243 c-13 -3 -18 -15 -18 -43 0 -43 10 -50 71 -50 56 0 79 15
79 50 0 19 -7 33 -19 40 -20 10 -80 12 -113 3z m89 -29 c13 -4 20 -10 17 -15
-7 -12 -104 -12 -104 0 0 18 46 26 87 15z"/>
<path d="M438 2243 c-26 -7 -25 -69 1 -83 28 -14 94 -13 115 3 22 16 25 65 5
78 -14 9 -90 10 -121 2z m95 -32 c9 -1 17 -5 17 -11 0 -5 -25 -10 -55 -10 -30
0 -55 4 -55 9 0 11 26 18 55 15 11 -1 28 -3 38 -3z"/>
<path d="M623 2243 c-19 -7 -17 -80 3 -87 24 -9 80 -7 108 4 20 7 26 17 26 38
0 15 -5 33 -12 40 -12 12 -100 15 -125 5z m100 -32 c4 -1 7 -5 7 -11 0 -5 -22
-10 -50 -10 -27 0 -50 4 -50 9 0 10 43 18 70 15 8 -2 18 -3 23 -3z"/>
<path d="M808 2243 c-26 -7 -25 -69 1 -83 29 -15 93 -12 119 6 27 19 29 60 3
74 -20 10 -90 12 -123 3z m90 -29 c40 -11 23 -24 -33 -24 -30 0 -55 4 -55 9 0
16 50 25 88 15z"/>
<path d="M993 2243 c-7 -2 -13 -22 -13 -43 0 -43 10 -50 71 -50 56 0 79 15 79
50 0 19 -7 33 -19 40 -20 10 -96 13 -118 3z m91 -29 c32 -12 15 -24 -34 -24
-27 0 -50 4 -50 9 0 18 53 27 84 15z"/>
<path d="M1396 2229 c-16 -24 -22 -95 -8 -115 4 -6 24 -14 44 -17 43 -6 48 1
48 71 0 56 -7 68 -41 77 -21 5 -30 2 -43 -16z m54 -61 c0 -35 -10 -59 -21 -52
-10 6 -12 87 -2 97 10 11 23 -14 23 -45z"/>
<path d="M2582 2233 c5 -25 28 -28 28 -4 0 12 -6 21 -16 21 -9 0 -14 -7 -12
-17z"/>
<path d="M2629 2226 c-9 -20 -9 -29 1 -41 20 -24 30 -18 30 19 0 44 -16 55
-31 22z"/>
<path d="M1347 2189 c-7 -53 -3 -69 14 -69 5 0 9 27 9 60 0 73 -15 79 -23 9z"/>
<path d="M1500 2165 c0 -43 4 -75 10 -75 6 0 10 32 10 75 0 43 -4 75 -10 75
-6 0 -10 -32 -10 -75z"/>
<path d="M1546 2232 c-11 -18 -16 -80 -8 -107 8 -27 13 -30 48 -30 l39 0 3 49
c5 79 -3 96 -43 96 -18 0 -36 -3 -39 -8z m52 -72 c-4 -63 -28 -65 -28 -2 0 27
3 52 7 56 14 14 24 -13 21 -54z"/>
<path d="M1650 2165 c0 -43 4 -75 10 -75 6 0 10 32 10 75 0 43 -4 75 -10 75
-6 0 -10 -32 -10 -75z"/>
<path d="M1695 2217 c-4 -13 -5 -46 -3 -73 l3 -49 40 0 c36 0 40 3 49 33 6 22
5 45 -3 72 -11 37 -15 40 -46 40 -28 0 -36 -5 -40 -23z m53 -58 c-2 -24 -7
-44 -13 -44 -12 0 -19 69 -10 93 11 29 26 -4 23 -49z"/>
<path d="M1800 2165 c0 -43 4 -75 10 -75 6 0 10 32 10 75 0 43 -4 75 -10 75
-6 0 -10 -32 -10 -75z"/>
<path d="M1846 2225 c-8 -21 -8 -98 0 -119 4 -10 18 -16 40 -16 44 0 60 34 47
100 -8 43 -10 45 -44 48 -26 2 -38 -1 -43 -13z m54 -61 c0 -40 -4 -55 -12 -52
-14 5 -23 70 -14 94 12 32 26 11 26 -42z"/>
<path d="M1950 2164 c0 -56 3 -75 13 -72 17 6 20 31 12 94 -10 79 -25 66 -25
-22z"/>
<path d="M2002 2228 c-12 -12 -16 -95 -6 -122 9 -24 71 -21 84 3 13 25 13 72
0 105 -7 20 -17 26 -38 26 -15 0 -33 -5 -40 -12z m48 -63 c0 -53 -11 -72 -24
-39 -8 21 -8 79 1 87 16 17 23 3 23 -48z"/>
<path d="M2102 2168 c2 -40 8 -73 13 -73 6 0 11 33 13 73 2 60 0 72 -13 72
-13 0 -15 -12 -13 -72z"/>
<path d="M2150 2221 c-14 -27 -13 -104 2 -119 19 -19 66 -15 78 7 13 25 13 72
0 105 -12 33 -64 37 -80 7z m54 -17 c13 -34 3 -94 -15 -94 -5 0 -9 25 -9 55 0
53 11 72 24 39z"/>
<path d="M2255 2175 c-3 -35 -4 -69 0 -75 16 -26 25 -4 25 65 0 41 -4 75 -9
75 -5 0 -12 -29 -16 -65z"/>
<path d="M2300 2221 c-5 -11 -10 -36 -10 -56 0 -54 15 -75 54 -75 38 0 46 12
46 68 0 67 -9 82 -46 82 -23 0 -37 -6 -44 -19z m54 -17 c13 -34 3 -94 -15 -94
-5 0 -9 25 -9 55 0 53 11 72 24 39z"/>
<path d="M2410 2165 c0 -43 4 -75 10 -75 6 0 10 32 10 75 0 43 -4 75 -10 75
-6 0 -10 -32 -10 -75z"/>
<path d="M2456 2232 c-11 -18 -16 -79 -8 -106 5 -20 18 -33 37 -39 38 -13 55
11 55 78 0 46 -3 53 -25 63 -30 14 -52 15 -59 4z m48 -28 c13 -34 3 -94 -15
-94 -5 0 -9 25 -9 55 0 53 11 72 24 39z"/>
<path d="M2560 2146 c0 -31 5 -56 10 -56 6 0 10 22 10 49 0 28 -4 53 -10 56
-6 4 -10 -15 -10 -49z"/>
<path d="M2600 2134 c0 -32 20 -59 40 -52 5 1 -1 21 -15 43 l-24 40 -1 -31z"/>
<path d="M240 2125 c0 -12 15 -15 75 -15 60 0 75 3 75 15 0 12 -15 15 -75 15
-60 0 -75 -3 -75 -15z"/>
<path d="M420 2125 c0 -12 15 -15 75 -15 60 0 75 3 75 15 0 12 -15 15 -75 15
-60 0 -75 -3 -75 -15z"/>
<path d="M610 2125 c0 -12 15 -15 75 -15 60 0 75 3 75 15 0 12 -15 15 -75 15
-60 0 -75 -3 -75 -15z"/>
<path d="M790 2125 c0 -13 12 -15 78 -13 43 2 77 7 77 13 0 6 -34 11 -77 13
-66 2 -78 0 -78 -13z"/>
<path d="M980 2125 c0 -12 15 -15 75 -15 60 0 75 3 75 15 0 12 -15 15 -75 15
-60 0 -75 -3 -75 -15z"/>
<path d="M1220 2103 c0 -25 15 -38 25 -22 4 6 0 18 -9 27 -15 15 -16 15 -16
-5z"/>
<path d="M253 2093 c-7 -2 -13 -22 -13 -43 0 -43 10 -50 71 -50 56 0 79 15 79
50 0 19 -7 33 -19 40 -20 10 -96 13 -118 3z m107 -43 c0 -5 -22 -10 -50 -10
-27 0 -50 5 -50 10 0 6 23 10 50 10 28 0 50 -4 50 -10z"/>
<path d="M438 2089 c-25 -14 -24 -65 1 -79 22 -11 74 -13 109 -4 30 8 32 68 3
84 -25 13 -91 13 -113 -1z m112 -39 c0 -5 -25 -10 -55 -10 -30 0 -55 5 -55 10
0 6 25 10 55 10 30 0 55 -4 55 -10z"/>
<path d="M628 2093 c-13 -3 -18 -15 -18 -43 0 -43 10 -50 71 -50 56 0 79 15
79 50 0 19 -7 33 -19 40 -20 10 -80 12 -113 3z m102 -43 c0 -5 -22 -10 -50
-10 -27 0 -50 5 -50 10 0 6 23 10 50 10 28 0 50 -4 50 -10z"/>
<path d="M808 2090 c-25 -15 -24 -66 1 -80 30 -16 107 -12 125 6 18 17 20 42
7 63 -11 18 -109 26 -133 11z m112 -40 c0 -5 -25 -10 -55 -10 -30 0 -55 5 -55
10 0 6 25 10 55 10 30 0 55 -4 55 -10z"/>
<path d="M993 2093 c-7 -2 -13 -22 -13 -43 0 -43 10 -50 71 -50 56 0 79 15 79
50 0 19 -7 33 -19 40 -20 10 -96 13 -118 3z m112 -43 c4 -6 -15 -10 -49 -10
-31 0 -56 5 -56 10 0 6 22 10 49 10 28 0 53 -4 56 -10z"/>
<path d="M1275 2081 c3 -6 -4 -15 -15 -21 -24 -13 -26 -33 -5 -50 12 -10 15
-10 15 4 0 30 18 16 27 -21 4 -20 14 -38 21 -41 18 -6 15 69 -4 96 -14 20 -14
22 3 23 16 0 16 1 -2 9 -27 12 -47 12 -40 1z"/>
<path d="M4080 1550 l0 -540 150 0 150 0 0 540 0 540 -150 0 -150 0 0 -540z"/>
<path d="M6260 1550 l0 -540 150 0 150 0 0 540 0 540 -150 0 -150 0 0 -540z"/>
<path d="M6680 2082 c0 -4 52 -243 115 -532 63 -288 115 -528 115 -532 0 -4
90 -8 200 -8 110 0 200 1 200 3 0 2 52 239 115 527 63 289 115 531 115 538 0
10 -31 12 -142 10 l-142 -3 -70 -413 c-39 -226 -73 -404 -77 -395 -3 10 -37
197 -75 415 l-69 398 -142 0 c-79 0 -143 -3 -143 -8z"/>
<path d="M7700 1550 l0 -540 150 0 150 0 0 540 0 540 -150 0 -150 0 0 -540z"/>
<path d="M2580 2056 c0 -7 7 -19 15 -26 13 -11 15 -8 15 14 0 16 -5 26 -15 26
-8 0 -15 -6 -15 -14z"/>
<path d="M2630 2044 c-13 -32 -7 -54 15 -54 10 0 15 10 15 34 0 44 -17 55 -30
20z"/>
<path d="M1348 2020 c-1 -22 -2 -50 -2 -62 -1 -12 5 -23 12 -25 9 -4 12 13 12
61 0 71 -19 93 -22 26z"/>
<path d="M1392 2035 c-7 -14 -12 -44 -12 -65 0 -45 22 -63 68 -58 25 3 27 6
30 61 3 67 -8 87 -48 87 -19 0 -30 -7 -38 -25z m53 -25 c8 -25 -3 -80 -16 -80
-5 0 -9 23 -9 50 0 51 13 67 25 30z"/>
<path d="M1500 1985 c0 -43 4 -75 10 -75 6 0 10 32 10 75 0 43 -4 75 -10 75
-6 0 -10 -32 -10 -75z"/>
<path d="M1540 2020 c-6 -22 -8 -56 -4 -76 6 -34 8 -35 48 -32 l41 3 3 58 c3
67 -8 87 -49 87 -25 0 -30 -5 -39 -40z m55 -40 c0 -26 -5 -45 -12 -47 -9 -3
-13 10 -13 47 0 37 4 50 13 48 7 -3 12 -22 12 -48z"/>
<path d="M1650 1985 c0 -43 4 -75 10 -75 6 0 10 32 10 75 0 43 -4 75 -10 75
-6 0 -10 -32 -10 -75z"/>
<path d="M1701 2046 c-7 -9 -11 -38 -9 -73 l3 -58 38 -3 c33 -3 38 0 48 25 11
30 4 90 -13 111 -14 16 -53 15 -67 -2z m49 -66 c0 -38 -4 -50 -15 -50 -11 0
-15 12 -15 50 0 38 4 50 15 50 11 0 15 -12 15 -50z"/>
<path d="M1800 1985 c0 -43 4 -75 10 -75 6 0 10 32 10 75 0 43 -4 75 -10 75
-6 0 -10 -32 -10 -75z"/>
<path d="M1850 2040 c-6 -11 -10 -44 -8 -73 l3 -52 42 -3 c41 -3 42 -2 49 33
4 21 1 54 -5 76 -10 34 -16 39 -41 39 -19 0 -33 -7 -40 -20z m50 -59 c0 -50
-13 -74 -24 -45 -8 21 -8 79 1 87 16 17 23 4 23 -42z"/>
<path d="M1950 1986 c0 -62 3 -76 15 -76 13 0 15 12 13 72 -2 46 -7 73 -15 76
-10 3 -13 -16 -13 -72z"/>
<path d="M2000 2040 c-6 -11 -10 -44 -8 -73 l3 -52 42 -3 c41 -3 42 -2 49 34
4 20 3 53 -2 73 -8 31 -14 36 -41 39 -24 2 -34 -2 -43 -18z m50 -61 c0 -36 -4
-49 -12 -47 -16 5 -22 41 -14 74 11 42 26 26 26 -27z"/>
<path d="M2106 2053 c-3 -3 -6 -37 -6 -75 0 -54 3 -68 15 -68 12 0 15 14 15
69 0 65 -8 90 -24 74z"/>
<path d="M2151 2041 c-12 -21 -15 -90 -5 -115 4 -11 19 -16 45 -16 36 0 38 2
45 37 4 20 3 52 -2 72 -8 31 -14 36 -41 39 -23 2 -34 -2 -42 -17z m50 -31 c4
-57 1 -80 -11 -80 -5 0 -10 23 -10 50 0 47 19 73 21 30z"/>
<path d="M2256 2023 c-11 -68 -7 -113 9 -113 12 0 15 15 15 75 0 79 -13 100
-24 38z"/>
<path d="M2300 2041 c-12 -23 -13 -101 -1 -119 5 -8 23 -12 47 -10 l39 3 3 52
c2 29 -2 62 -8 73 -14 27 -65 27 -80 1z m50 -61 c0 -27 -4 -50 -10 -50 -5 0
-10 23 -10 50 0 28 5 50 10 50 6 0 10 -22 10 -50z"/>
<path d="M2410 1985 c0 -43 4 -75 10 -75 6 0 10 32 10 75 0 43 -4 75 -10 75
-6 0 -10 -32 -10 -75z"/>
<path d="M2457 2053 c-12 -20 -18 -75 -12 -107 5 -26 14 -37 35 -45 41 -14 60
11 60 78 0 50 -1 53 -35 67 -40 16 -42 17 -48 7z m48 -73 c0 -26 -5 -45 -12
-47 -9 -3 -13 10 -13 47 0 37 4 50 13 48 7 -3 12 -22 12 -48z"/>
<path d="M2560 1956 c0 -31 5 -56 10 -56 6 0 10 22 10 49 0 28 -4 53 -10 56
-6 4 -10 -15 -10 -49z"/>
<path d="M803 1983 c-7 -3 -13 -9 -13 -14 0 -12 147 -12 155 1 4 6 -14 10 -47
11 -29 0 -60 2 -68 3 -8 2 -21 1 -27 -1z"/>
<path d="M980 1973 c0 -9 22 -13 76 -13 56 0 75 3 71 13 -5 17 -147 17 -147 0z"/>
<path d="M240 1970 c0 -6 32 -10 75 -10 43 0 75 4 75 10 0 6 -32 10 -75 10
-43 0 -75 -4 -75 -10z"/>
<path d="M425 1970 c3 -5 37 -10 76 -10 39 0 69 4 69 10 0 6 -32 10 -76 10
-47 0 -73 -4 -69 -10z"/>
<path d="M610 1970 c0 -6 32 -10 75 -10 43 0 75 4 75 10 0 6 -32 10 -75 10
-43 0 -75 -4 -75 -10z"/>
<path d="M2596 1943 c7 -30 32 -56 46 -47 10 6 -25 67 -42 72 -7 3 -9 -6 -4
-25z"/>
<path d="M258 1944 c-24 -7 -25 -79 -2 -88 25 -10 93 -7 115 4 20 11 27 64 9
75 -14 8 -102 15 -122 9z m107 -44 c3 -5 -5 -12 -18 -15 -35 -9 -80 -2 -85 13
-5 15 93 17 103 2z"/>
<path d="M443 1940 c-26 -10 -32 -57 -11 -78 18 -18 113 -15 133 4 15 16 13
48 -5 68 -12 13 -92 17 -117 6z m105 -42 c-3 -8 -23 -13 -53 -13 -30 0 -50 5
-52 13 -4 9 11 12 52 12 41 0 56 -3 53 -12z"/>
<path d="M633 1940 c-18 -7 -23 -17 -23 -44 0 -38 12 -46 71 -46 56 0 79 15
79 51 0 22 -6 32 -26 39 -31 12 -71 12 -101 0z m102 -40 c3 -5 -5 -12 -18 -15
-35 -9 -80 -2 -85 13 -5 15 93 17 103 2z"/>
<path d="M813 1940 c-18 -7 -23 -18 -23 -44 0 -22 6 -36 16 -40 25 -10 104 -7
125 4 23 13 25 52 4 70 -20 16 -94 22 -122 10z m105 -42 c-3 -8 -23 -13 -53
-13 -30 0 -50 5 -52 13 -4 9 11 12 52 12 41 0 56 -3 53 -12z"/>
<path d="M998 1943 c-24 -6 -25 -78 -2 -87 27 -10 110 -6 122 6 7 7 12 25 12
40 0 21 -6 31 -26 38 -26 10 -75 11 -106 3z m100 -45 c-3 -8 -22 -13 -48 -13
-26 0 -45 5 -47 13 -3 8 10 12 47 12 37 0 50 -4 48 -12z"/>
<path d="M2582 1863 c5 -25 28 -28 28 -4 0 12 -6 21 -16 21 -9 0 -14 -7 -12
-17z"/>
<path d="M2629 1856 c-9 -20 -9 -29 1 -41 20 -24 30 -18 30 19 0 44 -16 55
-31 22z"/>
<path d="M240 1820 c0 -6 32 -10 75 -10 43 0 75 4 75 10 0 6 -32 10 -75 10
-43 0 -75 -4 -75 -10z"/>
<path d="M420 1820 c0 -6 32 -10 75 -10 43 0 75 4 75 10 0 6 -32 10 -75 10
-43 0 -75 -4 -75 -10z"/>
<path d="M610 1820 c0 -6 32 -10 75 -10 43 0 75 4 75 10 0 6 -32 10 -75 10
-43 0 -75 -4 -75 -10z"/>
<path d="M790 1820 c0 -6 33 -10 80 -10 47 0 80 4 80 10 0 6 -33 10 -80 10
-47 0 -80 -4 -80 -10z"/>
<path d="M980 1820 c0 -6 32 -10 75 -10 43 0 75 4 75 10 0 6 -32 10 -75 10
-43 0 -75 -4 -75 -10z"/>
<path d="M256 1787 c-12 -9 -17 -23 -14 -47 3 -34 4 -35 52 -38 79 -5 96 3 96
42 0 29 -5 36 -31 45 -42 15 -81 14 -103 -2z m107 -42 c-4 -15 -96 -12 -101 3
-3 10 9 12 49 10 30 -2 53 -7 52 -13z"/>
<path d="M443 1790 c-18 -7 -23 -18 -23 -44 0 -22 6 -36 16 -40 23 -9 107 -7
123 3 16 10 18 58 3 73 -14 14 -92 20 -119 8z m102 -45 c0 -11 -69 -19 -92
-11 -8 3 -11 11 -8 16 8 14 100 9 100 -5z"/>
<path d="M628 1789 c-23 -13 -25 -74 -2 -83 9 -3 35 -6 59 -6 63 0 75 7 75 45
0 28 -5 35 -31 44 -39 14 -78 14 -101 0z m107 -44 c0 -11 -79 -19 -102 -11 -8
3 -11 11 -8 16 8 14 110 9 110 -5z"/>
<path d="M813 1790 c-18 -7 -23 -18 -23 -44 0 -22 6 -36 16 -40 25 -10 104 -7
125 4 23 13 25 52 4 70 -20 16 -94 22 -122 10z m102 -45 c0 -11 -69 -19 -92
-11 -8 3 -11 11 -8 16 8 14 100 9 100 -5z"/>
<path d="M996 1787 c-12 -9 -17 -23 -14 -47 3 -34 4 -35 52 -38 79 -5 96 2 96
43 0 29 -5 37 -26 45 -36 14 -87 12 -108 -3z m109 -42 c0 -12 -59 -19 -92 -10
-13 3 -21 10 -18 16 9 13 110 7 110 -6z"/>
<path d="M2078 1753 c-24 -6 -23 -23 2 -23 11 0 20 7 20 15 0 8 -1 14 -2 14
-2 -1 -11 -3 -20 -6z"/>
<path d="M1875 1740 c3 -5 12 -10 20 -10 8 0 17 5 20 10 4 6 -5 10 -20 10 -15
0 -24 -4 -20 -10z"/>
<path d="M2250 1740 c0 -5 6 -10 14 -10 8 0 18 5 21 10 3 6 -3 10 -14 10 -12
0 -21 -4 -21 -10z"/>
<path d="M2430 1740 c0 -5 6 -10 14 -10 8 0 18 5 21 10 3 6 -3 10 -14 10 -12
0 -21 -4 -21 -10z"/>
<path d="M2620 1740 c0 -5 6 -10 14 -10 8 0 18 5 21 10 3 6 -3 10 -14 10 -12
0 -21 -4 -21 -10z"/>
<path d="M1813 1725 c-17 -13 -17 -14 0 -15 35 0 18 -29 -20 -32 -20 -2 -38
-9 -41 -15 -6 -20 82 -17 99 3 12 14 14 14 19 -2 6 -15 9 -12 17 13 10 28 9
30 -8 26 -12 -4 -19 0 -19 10 0 22 -25 28 -47 12z"/>
<path d="M2005 1726 c-17 -12 -17 -13 -1 -19 25 -10 10 -27 -23 -27 -16 0 -34
-7 -41 -15 -11 -13 -6 -15 38 -15 28 0 54 5 57 11 4 6 13 8 21 5 8 -3 14 -1
14 3 0 5 3 18 7 28 6 16 5 16 -10 4 -15 -11 -17 -11 -17 2 0 25 -24 38 -45 23z"/>
<path d="M2184 1726 c-16 -12 -15 -13 6 -19 32 -8 15 -27 -25 -27 -20 0 -35
-6 -39 -15 -4 -12 3 -15 35 -15 22 0 49 5 60 10 14 8 19 7 19 -2 0 -9 3 -9 10
2 14 22 12 40 -5 40 -8 0 -15 6 -15 14 0 20 -25 27 -46 12z"/>
<path d="M2377 1728 c-18 -9 -18 -10 0 -23 20 -15 12 -21 -36 -27 -14 -2 -26
-9 -29 -15 -5 -16 84 -18 93 -3 5 8 11 7 21 -1 11 -9 14 -8 14 4 0 8 3 24 7
34 6 16 5 16 -10 4 -15 -11 -17 -11 -17 2 0 24 -22 37 -43 25z"/>
<path d="M2553 1725 c-17 -13 -17 -14 0 -15 9 0 17 -7 17 -15 0 -10 -10 -15
-34 -15 -21 0 -36 -6 -40 -15 -8 -21 77 -21 98 0 13 13 15 13 18 -1 2 -10 7
-4 15 16 10 28 10 30 -3 19 -12 -10 -16 -9 -20 9 -8 27 -28 34 -51 17z"/>
<path d="M240 1670 c0 -6 32 -10 75 -10 43 0 75 4 75 10 0 6 -32 10 -75 10
-43 0 -75 -4 -75 -10z"/>
<path d="M420 1670 c0 -6 32 -10 75 -10 43 0 75 4 75 10 0 6 -32 10 -75 10
-43 0 -75 -4 -75 -10z"/>
<path d="M610 1670 c0 -6 32 -10 75 -10 43 0 75 4 75 10 0 6 -32 10 -75 10
-43 0 -75 -4 -75 -10z"/>
<path d="M790 1670 c0 -6 33 -10 80 -10 47 0 80 4 80 10 0 6 -33 10 -80 10
-47 0 -80 -4 -80 -10z"/>
<path d="M980 1670 c0 -6 32 -10 75 -10 43 0 75 4 75 10 0 6 -32 10 -75 10
-43 0 -75 -4 -75 -10z"/>
<path d="M263 1640 c-27 -11 -40 -54 -23 -75 8 -10 31 -15 66 -15 49 0 55 2
69 30 21 41 19 47 -16 59 -37 13 -66 13 -96 1z m100 -45 c-2 -5 -25 -11 -53
-13 -40 -2 -50 0 -50 13 0 13 10 15 53 13 28 -2 51 -7 50 -13z"/>
<path d="M451 1642 c-29 -9 -47 -58 -29 -79 6 -8 33 -13 69 -13 47 0 60 4 69
19 12 24 13 58 2 65 -17 10 -87 15 -111 8z m94 -47 c0 -11 -69 -19 -92 -11 -8
3 -11 11 -8 16 8 14 100 9 100 -5z"/>
<path d="M633 1640 c-27 -11 -40 -54 -23 -75 16 -19 113 -21 128 -2 6 6 13 24
17 38 6 23 3 28 -26 38 -37 13 -65 13 -96 1z m97 -45 c0 -11 -12 -15 -50 -15
-46 0 -60 7 -43 23 3 4 26 7 50 7 32 0 43 -4 43 -15z"/>
<path d="M821 1641 c-29 -8 -47 -57 -29 -78 6 -8 33 -13 69 -13 47 0 60 4 69
19 32 61 -21 97 -109 72z m94 -46 c0 -11 -69 -19 -92 -11 -8 3 -11 11 -8 16 8
14 100 9 100 -5z"/>
<path d="M1010 1641 c-31 -9 -49 -53 -30 -75 8 -11 30 -16 70 -16 56 0 58 1
69 31 15 44 15 46 -20 58 -35 12 -52 12 -89 2z m93 -46 c-2 -5 -25 -11 -53
-13 -40 -2 -50 0 -50 13 0 13 10 15 53 13 28 -2 51 -7 50 -13z"/>
<path d="M1730 1620 c0 -6 28 -10 65 -10 37 0 65 4 65 10 0 6 -28 10 -65 10
-37 0 -65 -4 -65 -10z"/>
<path d="M1920 1620 c0 -6 27 -10 60 -10 33 0 60 4 60 10 0 6 -27 10 -60 10
-33 0 -60 -4 -60 -10z"/>
<path d="M2105 1620 c-4 -6 18 -10 59 -10 37 0 66 4 66 10 0 6 -26 10 -59 10
-33 0 -63 -4 -66 -10z"/>
<path d="M2290 1620 c0 -6 27 -10 60 -10 33 0 60 4 60 10 0 6 -27 10 -60 10
-33 0 -60 -4 -60 -10z"/>
<path d="M2470 1620 c0 -6 28 -10 65 -10 37 0 65 4 65 10 0 6 -28 10 -65 10
-37 0 -65 -4 -65 -10z"/>
<path d="M1716 1568 c-13 -50 -7 -68 22 -69 91 -5 122 5 122 39 0 41 -17 52
-81 52 -50 0 -57 -3 -63 -22z m112 -25 c2 -9 -11 -13 -47 -13 -48 0 -74 13
-49 24 23 9 91 1 96 -11z"/>
<path d="M1906 1578 c-13 -41 -15 -68 -6 -73 18 -11 121 -7 136 6 20 17 17 56
-5 69 -28 14 -121 13 -125 -2z m98 -24 c28 -11 6 -24 -39 -24 -67 0 -70 27 -3
29 14 1 33 -2 42 -5z"/>
<path d="M2086 1568 c-3 -13 -6 -33 -6 -45 0 -21 4 -23 59 -23 77 0 91 6 91
39 0 40 -18 51 -81 51 -50 0 -57 -3 -63 -22z m112 -25 c2 -9 -11 -13 -47 -13
-48 0 -61 7 -44 24 12 11 86 2 91 -11z"/>
<path d="M2274 1577 c-2 -7 -6 -27 -7 -43 -2 -29 -2 -29 61 -32 38 -2 69 2 78
9 17 14 18 51 2 67 -17 17 -127 16 -134 -1z m100 -23 c28 -11 6 -24 -39 -24
-67 0 -70 27 -3 29 14 1 33 -2 42 -5z"/>
<path d="M2456 1568 c-13 -51 -8 -66 27 -69 17 -2 50 -2 72 1 35 4 40 9 43 33
5 44 -13 57 -78 57 -51 0 -58 -2 -64 -22z m98 -14 c32 -12 15 -24 -34 -24 -46
0 -60 7 -43 23 8 9 56 9 77 1z"/>
<path d="M230 1514 c0 -12 10 -14 52 -12 74 4 77 28 4 28 -44 0 -56 -3 -56
-16z"/>
<path d="M420 1515 c0 -11 12 -15 44 -15 26 0 48 6 56 15 11 13 5 15 -44 15
-43 0 -56 -3 -56 -15z"/>
<path d="M602 1518 c7 -20 92 -22 108 -3 11 13 5 15 -50 15 -45 0 -61 -3 -58
-12z"/>
<path d="M790 1515 c0 -11 12 -15 44 -15 26 0 48 6 56 15 11 13 5 15 -44 15
-43 0 -56 -3 -56 -15z"/>
<path d="M972 1518 c7 -19 79 -22 103 -4 19 14 15 15 -43 16 -47 0 -63 -3 -60
-12z"/>
<path d="M175 1490 c-3 -5 3 -10 14 -10 12 0 21 5 21 10 0 6 -6 10 -14 10 -8
0 -18 -4 -21 -10z"/>
<path d="M355 1490 c-4 -6 5 -10 19 -10 14 0 26 5 26 10 0 6 -9 10 -19 10 -11
0 -23 -4 -26 -10z"/>
<path d="M545 1490 c-3 -5 3 -10 14 -10 11 0 23 5 26 10 3 6 -3 10 -14 10 -11
0 -23 -4 -26 -10z"/>
<path d="M725 1490 c-4 -6 5 -10 19 -10 14 0 26 5 26 10 0 6 -9 10 -19 10 -11
0 -23 -4 -26 -10z"/>
<path d="M915 1490 c-4 -6 5 -10 19 -10 14 0 26 5 26 10 0 6 -9 10 -19 10 -11
0 -23 -4 -26 -10z"/>
<path d="M243 1478 c-34 -44 -25 -48 32 -13 l40 24 -31 1 c-17 0 -36 -6 -41
-12z"/>
<path d="M426 1474 c-37 -36 -2 -39 44 -4 l25 20 -27 0 c-15 0 -34 -7 -42 -16z"/>
<path d="M610 1475 c-24 -29 -4 -34 35 -10 l40 24 -31 1 c-17 0 -37 -7 -44
-15z"/>
<path d="M796 1474 c-37 -36 -2 -39 44 -4 l25 20 -27 0 c-15 0 -34 -7 -42 -16z"/>
<path d="M980 1475 c-24 -29 -4 -34 35 -10 l40 24 -31 1 c-17 0 -37 -7 -44
-15z"/>
<path d="M1710 1465 c0 -12 15 -15 75 -15 60 0 75 3 75 15 0 12 -15 15 -75 15
-60 0 -75 -3 -75 -15z"/>
<path d="M1890 1465 c0 -12 15 -15 75 -15 60 0 75 3 75 15 0 12 -15 15 -75 15
-60 0 -75 -3 -75 -15z"/>
<path d="M2080 1465 c0 -12 15 -15 75 -15 60 0 75 3 75 15 0 12 -15 15 -75 15
-60 0 -75 -3 -75 -15z"/>
<path d="M2260 1465 c0 -12 15 -15 75 -15 60 0 75 3 75 15 0 12 -15 15 -75 15
-60 0 -75 -3 -75 -15z"/>
<path d="M2450 1465 c0 -12 15 -15 75 -15 60 0 75 3 75 15 0 12 -15 15 -75 15
-60 0 -75 -3 -75 -15z"/>
<path d="M142 1458 c-21 -21 -13 -28 28 -28 45 0 53 16 14 30 -31 12 -28 12
-42 -2z"/>
<path d="M325 1450 c-18 -20 -17 -20 28 -20 51 0 62 15 21 30 -32 13 -28 13
-49 -10z"/>
<path d="M512 1458 c-21 -21 -13 -28 28 -28 43 0 52 13 21 30 -25 13 -34 13
-49 -2z"/>
<path d="M695 1450 c-18 -20 -17 -20 28 -20 51 0 62 15 21 30 -32 13 -28 13
-49 -10z"/>
<path d="M882 1458 c-21 -21 -13 -28 28 -28 43 0 52 13 21 30 -25 13 -34 13
-49 -2z"/>
<path d="M1717 1433 c-4 -3 -7 -23 -7 -44 0 -37 1 -38 43 -44 63 -9 101 5 105
39 5 43 -13 56 -78 56 -31 0 -60 -3 -63 -7z m97 -29 c32 -12 15 -24 -33 -24
-72 0 -80 27 -9 29 14 1 33 -2 42 -5z"/>
<path d="M1903 1433 c-7 -2 -13 -20 -13 -39 0 -28 5 -36 28 -45 30 -12 99 -4
119 13 18 14 16 43 -3 62 -15 16 -102 21 -131 9z m94 -29 c13 -4 20 -10 17
-15 -7 -12 -104 -12 -104 0 0 18 46 26 87 15z"/>
<path d="M2087 1433 c-4 -3 -7 -23 -7 -43 0 -36 2 -38 39 -43 22 -2 54 -2 73
2 27 5 34 12 36 34 5 44 -13 57 -78 57 -31 0 -60 -3 -63 -7z m97 -29 c32 -12
15 -24 -34 -24 -46 0 -60 7 -43 23 8 9 56 9 77 1z"/>
<path d="M2272 1431 c-8 -5 -12 -22 -10 -42 3 -30 7 -34 41 -41 22 -5 53 -4
70 0 27 7 33 14 35 42 4 41 -8 50 -73 50 -27 0 -56 -4 -63 -9z m95 -27 c13 -4
20 -10 17 -15 -7 -12 -104 -12 -104 0 0 18 46 26 87 15z"/>
<path d="M2457 1433 c-4 -3 -7 -23 -7 -44 0 -37 1 -38 43 -44 63 -9 101 5 105
39 5 43 -13 56 -78 56 -31 0 -60 -3 -63 -7z m97 -29 c32 -12 15 -24 -34 -24
-27 0 -50 4 -50 9 0 18 53 27 84 15z"/>
<path d="M90 1383 c0 -5 4 -15 10 -23 11 -18 25 -7 17 15 -6 15 -27 21 -27 8z"/>
<path d="M149 1356 c10 -12 8 -16 -8 -21 -12 -3 -21 -15 -21 -25 0 -25 16 -34
24 -14 9 23 26 7 26 -25 0 -26 16 -51 32 -51 13 0 9 48 -7 86 -8 19 -14 37
-14 41 0 4 -9 11 -22 15 -18 7 -20 6 -10 -6z"/>
<path d="M220 1271 c0 -33 5 -63 10 -66 6 -4 10 18 10 59 0 37 -4 66 -10 66
-6 0 -10 -26 -10 -59z"/>
<path d="M265 1307 c-4 -13 -5 -43 -3 -67 3 -41 6 -44 38 -53 41 -10 60 8 60
59 0 60 -15 84 -55 84 -28 0 -36 -4 -40 -23z m55 -58 c0 -36 -4 -49 -12 -47
-14 5 -23 70 -14 95 11 28 26 1 26 -48z"/>
<path d="M370 1255 c0 -57 3 -75 14 -75 10 0 14 19 15 75 1 62 -1 75 -14 75
-12 0 -15 -14 -15 -75z"/>
<path d="M421 1311 c-12 -21 -15 -90 -5 -115 4 -11 19 -16 45 -16 36 0 38 2
45 37 4 20 3 52 -2 72 -8 31 -14 36 -41 39 -23 2 -34 -2 -42 -17z m49 -62 c0
-36 -4 -49 -12 -47 -15 5 -22 50 -13 85 9 39 25 16 25 -38z"/>
<path d="M520 1271 c0 -63 6 -91 21 -91 5 0 9 34 9 75 0 60 -3 75 -15 75 -12
0 -15 -13 -15 -59z"/>
<path d="M570 1311 c-11 -22 -14 -90 -4 -115 4 -11 19 -16 44 -16 41 0 50 13
50 78 0 49 -16 72 -50 72 -19 0 -33 -7 -40 -19z m50 -61 c0 -27 -4 -50 -10
-50 -5 0 -10 23 -10 50 0 28 5 50 10 50 6 0 10 -22 10 -50z"/>
<path d="M677 1322 c-8 -12 5 -142 14 -142 5 0 9 34 9 75 0 66 -9 91 -23 67z"/>
<path d="M720 1311 c-14 -27 -13 -94 3 -115 9 -12 23 -17 47 -14 l35 3 3 58
c2 35 -2 64 -9 73 -17 21 -66 18 -79 -5z m56 -36 c7 -30 -2 -75 -16 -75 -6 0
-10 23 -10 50 0 53 15 67 26 25z"/>
<path d="M830 1255 c0 -43 4 -75 10 -75 6 0 10 32 10 75 0 43 -4 75 -10 75 -6
0 -10 -32 -10 -75z"/>
<path d="M870 1304 c-13 -32 -13 -66 0 -99 9 -23 15 -26 47 -23 38 3 38 3 41
52 5 79 -2 96 -43 96 -29 0 -37 -5 -45 -26z m58 -61 c-5 -58 -28 -54 -28 5 0
27 3 52 7 56 12 12 24 -23 21 -61z"/>
<path d="M980 1255 c0 -43 4 -75 10 -75 6 0 10 32 10 75 0 43 -4 75 -10 75 -6
0 -10 -32 -10 -75z"/>
<path d="M1025 1320 c-11 -18 -10 -119 2 -131 6 -6 26 -9 44 -7 28 2 35 8 43
36 6 22 5 45 -3 72 -11 36 -15 40 -46 40 -19 0 -37 -5 -40 -10z m53 -77 c-5
-58 -28 -54 -28 5 0 27 3 52 7 56 12 12 24 -23 21 -61z"/>
<path d="M1130 1255 c0 -43 4 -75 10 -75 6 0 10 32 10 75 0 43 -4 75 -10 75
-6 0 -10 -32 -10 -75z"/>
<path d="M1175 1307 c-4 -13 -5 -46 -3 -73 3 -49 3 -49 41 -52 32 -3 38 0 47
23 13 35 13 68 -2 100 -9 19 -19 25 -44 25 -27 0 -35 -5 -39 -23z m55 -58 c0
-36 -4 -49 -12 -47 -14 5 -23 70 -14 95 11 28 26 1 26 -48z"/>
<path d="M1280 1255 c0 -73 12 -98 24 -52 7 29 -4 127 -15 127 -5 0 -9 -34 -9
-75z"/>
<path d="M1330 1311 c-5 -11 -10 -40 -10 -65 0 -53 21 -78 59 -74 22 3 27 10
35 45 12 59 2 89 -35 102 -40 14 -36 14 -49 -8z m50 -62 c0 -36 -4 -49 -12
-47 -15 5 -22 50 -13 85 9 39 25 16 25 -38z"/>
<path d="M1710 1315 c0 -12 15 -15 75 -15 60 0 75 3 75 15 0 12 -15 15 -75 15
-60 0 -75 -3 -75 -15z"/>
<path d="M1890 1315 c0 -12 15 -15 75 -15 60 0 75 3 75 15 0 12 -15 15 -75 15
-60 0 -75 -3 -75 -15z"/>
<path d="M2080 1315 c0 -12 15 -15 75 -15 60 0 75 3 75 15 0 12 -15 15 -75 15
-60 0 -75 -3 -75 -15z"/>
<path d="M2260 1315 c0 -12 15 -15 75 -15 60 0 75 3 75 15 0 12 -15 15 -75 15
-60 0 -75 -3 -75 -15z"/>
<path d="M2450 1315 c0 -12 15 -15 75 -15 60 0 75 3 75 15 0 12 -15 15 -75 15
-60 0 -75 -3 -75 -15z"/>
<path d="M1717 1283 c-4 -3 -7 -23 -7 -44 0 -42 10 -49 71 -49 56 0 79 15 79
50 0 19 -7 33 -19 40 -22 11 -114 14 -124 3z m113 -43 c0 -5 -22 -10 -50 -10
-27 0 -50 5 -50 10 0 6 23 10 50 10 28 0 50 -4 50 -10z"/>
<path d="M1903 1283 c-21 -8 -16 -71 6 -83 73 -39 177 23 125 74 -15 16 -102
21 -131 9z m103 -33 c8 0 14 -4 14 -10 0 -5 -25 -10 -55 -10 -30 0 -55 4 -55
9 0 10 47 20 68 14 8 -1 20 -3 28 -3z"/>
<path d="M2087 1283 c-4 -3 -7 -23 -7 -44 0 -42 10 -49 71 -49 56 0 79 15 79
50 0 19 -7 33 -19 40 -22 11 -114 14 -124 3z m91 -29 c39 -11 24 -24 -28 -24
-49 0 -68 14 -32 23 26 7 35 7 60 1z"/>
<path d="M2273 1283 c-7 -2 -13 -20 -13 -38 0 -40 20 -55 75 -55 54 0 75 15
75 54 0 22 -6 36 -16 40 -18 7 -103 7 -121 -1z m95 -29 c40 -11 23 -24 -33
-24 -30 0 -55 4 -55 9 0 16 50 25 88 15z"/>
<path d="M2463 1283 c-19 -7 -17 -80 3 -87 25 -10 93 -7 115 4 22 12 26 59 7
78 -12 12 -100 15 -125 5z m85 -29 c39 -11 24 -24 -28 -24 -49 0 -68 14 -32
23 26 7 35 7 60 1z"/>
<path d="M1430 1226 c0 -44 3 -56 16 -56 12 0 14 10 12 52 -4 74 -28 77 -28 4z"/>
<path d="M1470 1225 c0 -15 11 -36 25 -50 16 -14 22 -26 15 -30 -15 -9 -12
-51 5 -65 24 -20 20 61 -6 115 -26 55 -39 65 -39 30z"/>
<path d="M90 1201 c0 -18 12 -41 21 -41 15 0 10 37 -6 44 -8 3 -15 1 -15 -3z"/>
<path d="M150 1165 c10 -12 10 -15 -2 -15 -25 0 -38 -21 -27 -42 10 -19 11
-19 24 -1 15 20 21 12 27 -37 2 -15 11 -26 22 -28 17 -4 18 0 12 39 -4 24 -14
51 -23 61 -15 17 -15 18 3 19 18 0 18 1 -1 9 -34 15 -49 12 -35 -5z"/>
<path d="M1710 1165 c0 -12 15 -15 75 -15 60 0 75 3 75 15 0 12 -15 15 -75 15
-60 0 -75 -3 -75 -15z"/>
<path d="M1890 1165 c0 -12 15 -15 75 -15 60 0 75 3 75 15 0 12 -15 15 -75 15
-60 0 -75 -3 -75 -15z"/>
<path d="M2080 1165 c0 -12 14 -15 76 -15 56 0 75 3 72 13 -3 8 -30 13 -76 15
-60 2 -72 0 -72 -13z"/>
<path d="M2267 1173 c-18 -17 -1 -23 68 -23 60 0 75 3 75 15 0 12 -14 15 -68
15 -38 0 -72 -3 -75 -7z"/>
<path d="M2450 1165 c0 -12 15 -15 75 -15 60 0 75 3 75 15 0 12 -15 15 -75 15
-60 0 -75 -3 -75 -15z"/>
<path d="M1460 1141 c0 -11 5 -23 10 -26 6 -4 10 5 10 19 0 14 -4 26 -10 26
-5 0 -10 -9 -10 -19z"/>
<path d="M220 1086 c0 -37 4 -66 10 -66 6 0 10 26 10 59 0 33 -4 63 -10 66 -6
4 -10 -18 -10 -59z"/>
<path d="M270 1131 c-5 -11 -10 -42 -10 -70 0 -47 2 -51 28 -57 15 -3 33 -7
40 -10 31 -9 41 106 12 141 -18 21 -57 18 -70 -4z m50 -67 c0 -40 -4 -55 -12
-52 -14 5 -23 70 -14 94 12 32 26 11 26 -42z"/>
<path d="M376 1143 c-10 -10 -7 -153 3 -153 14 0 21 28 21 90 0 55 -9 78 -24
63z"/>
<path d="M420 1131 c-5 -11 -10 -38 -10 -61 0 -57 14 -80 51 -80 23 0 32 6 40
28 12 32 6 96 -11 117 -18 21 -57 18 -70 -4z m50 -67 c0 -40 -4 -55 -12 -52
-15 5 -22 50 -14 84 11 43 26 25 26 -32z"/>
<path d="M570 1131 c-5 -11 -10 -38 -10 -61 0 -23 5 -50 10 -61 15 -27 66 -26
81 2 14 28 6 118 -12 130 -24 15 -58 10 -69 -10z m55 -40 c7 -32 -3 -81 -16
-81 -5 0 -9 25 -9 55 0 59 14 74 25 26z"/>
<path d="M680 1081 c0 -39 0 -74 -1 -78 0 -4 4 -9 10 -11 14 -5 15 144 1 153
-6 4 -10 -20 -10 -64z"/>
<path d="M726 1128 c-18 -26 -21 -90 -6 -119 12 -22 59 -26 78 -7 15 15 16
102 2 129 -14 26 -55 24 -74 -3z m48 -24 c13 -34 3 -94 -15 -94 -5 0 -9 25 -9
55 0 53 11 72 24 39z"/>
<path d="M880 1135 c-17 -21 -23 -85 -11 -117 9 -23 17 -28 45 -28 22 0 36 6
40 16 10 25 7 104 -4 125 -13 22 -52 25 -70 4z m44 -31 c13 -35 2 -99 -15 -88
-12 7 -12 104 0 104 5 0 12 -7 15 -16z"/>
<path d="M1031 1136 c-7 -9 -11 -40 -9 -78 l3 -63 40 0 c37 0 40 2 47 35 8 38
2 88 -14 108 -14 16 -53 15 -67 -2z m44 -69 c0 -65 -19 -64 -23 2 -2 40 0 52
10 49 8 -3 13 -22 13 -51z"/>
<path d="M1182 1138 c-12 -12 -17 -104 -6 -132 4 -10 18 -16 40 -16 28 0 36 5
45 28 12 32 6 96 -11 117 -15 18 -52 19 -68 3z m46 -68 c-4 -60 -22 -71 -26
-16 -4 43 2 66 18 66 7 0 10 -19 8 -50z"/>
<path d="M524 1118 c3 -13 6 -47 6 -76 0 -33 4 -51 10 -47 6 3 10 37 10 76 0
57 -3 69 -16 69 -12 0 -15 -6 -10 -22z"/>
<path d="M830 1065 c0 -43 4 -75 10 -75 6 0 10 32 10 75 0 43 -4 75 -10 75 -6
0 -10 -32 -10 -75z"/>
<path d="M980 1065 c0 -43 4 -75 10 -75 6 0 10 32 10 75 0 43 -4 75 -10 75 -6
0 -10 -32 -10 -75z"/>
<path d="M1130 1065 c0 -43 4 -75 10 -75 6 0 10 32 10 75 0 43 -4 75 -10 75
-6 0 -10 -32 -10 -75z"/>
<path d="M1280 1064 c0 -56 3 -75 13 -72 11 4 13 24 9 111 -4 70 -22 38 -22
-39z"/>
<path d="M1326 1125 c-8 -23 -7 -107 2 -122 4 -6 20 -13 37 -15 23 -2 32 2 42
22 16 32 17 81 1 103 -19 25 -73 33 -82 12z m54 -61 c0 -40 -4 -55 -12 -52
-14 5 -23 70 -14 94 12 32 26 11 26 -42z"/>
<path d="M1728 1133 c-24 -6 -25 -78 -2 -87 25 -10 93 -7 115 4 30 16 26 68
-7 80 -26 10 -75 11 -106 3z m102 -43 c0 -5 -22 -10 -50 -10 -27 0 -50 5 -50
10 0 6 23 10 50 10 28 0 50 -4 50 -10z"/>
<path d="M1908 1133 c-24 -6 -25 -78 -2 -87 35 -13 111 -6 127 12 49 54 -30
100 -125 75z m112 -43 c0 -5 -25 -10 -55 -10 -30 0 -55 5 -55 10 0 6 25 10 55
10 30 0 55 -4 55 -10z"/>
<path d="M2098 1133 c-24 -6 -25 -78 -2 -87 25 -10 93 -7 115 4 30 16 26 68
-7 80 -26 10 -75 11 -106 3z m102 -43 c0 -5 -22 -10 -50 -10 -27 0 -50 5 -50
10 0 6 23 10 50 10 28 0 50 -4 50 -10z"/>
<path d="M2278 1133 c-26 -7 -25 -69 1 -83 27 -14 104 -13 119 2 7 7 12 26 12
44 0 27 -4 32 -31 38 -34 7 -74 6 -101 -1z m112 -43 c0 -5 -25 -10 -55 -10
-30 0 -55 5 -55 10 0 6 25 10 55 10 30 0 55 -4 55 -10z"/>
<path d="M2468 1133 c-24 -6 -25 -78 -2 -87 25 -10 93 -7 115 4 30 16 26 68
-7 80 -26 10 -75 11 -106 3z m102 -43 c0 -5 -22 -10 -50 -10 -27 0 -50 5 -50
10 0 6 23 10 50 10 28 0 50 -4 50 -10z"/>
<path d="M1430 1045 c0 -42 3 -55 15 -55 11 0 15 11 15 39 0 44 -8 71 -21 71
-5 0 -9 -25 -9 -55z"/>
<path d="M1470 1036 c0 -24 23 -56 41 -56 14 0 11 12 -11 48 -24 38 -30 40
-30 8z"/>
<path d="M1710 1015 c0 -12 14 -15 76 -15 56 0 75 3 72 13 -3 8 -30 13 -76 15
-60 2 -72 0 -72 -13z"/>
<path d="M1890 1015 c0 -12 15 -15 75 -15 60 0 75 3 75 15 0 12 -15 15 -75 15
-60 0 -75 -3 -75 -15z"/>
<path d="M2080 1015 c0 -12 14 -15 76 -15 56 0 75 3 72 13 -3 8 -30 13 -76 15
-60 2 -72 0 -72 -13z"/>
<path d="M2267 1023 c-18 -17 -1 -23 68 -23 60 0 75 3 75 15 0 12 -14 15 -68
15 -38 0 -72 -3 -75 -7z"/>
<path d="M2450 1015 c0 -12 14 -15 76 -15 56 0 75 3 72 13 -3 8 -30 13 -76 15
-60 2 -72 0 -72 -13z"/>
<path d="M90 1013 c0 -5 4 -15 10 -23 11 -18 25 -7 17 15 -6 15 -27 21 -27 8z"/>
<path d="M149 986 c10 -11 8 -16 -8 -21 -22 -7 -27 -30 -11 -55 8 -13 10 -12
10 3 0 9 7 17 15 17 10 0 15 -10 15 -34 0 -36 26 -58 37 -30 8 21 -15 94 -30
95 -7 0 -3 4 7 8 18 7 16 9 -13 19 -28 10 -31 10 -22 -2z"/>
<path d="M1728 983 c-24 -6 -25 -78 -2 -87 25 -10 93 -7 115 4 30 16 26 68 -7
80 -26 10 -75 11 -106 3z m102 -42 c0 -5 -6 -11 -14 -14 -20 -8 -96 4 -90 14
7 12 104 12 104 0z"/>
<path d="M1908 979 c-23 -13 -25 -74 -2 -83 32 -12 112 -6 129 10 22 23 15 56
-15 71 -30 15 -88 16 -112 2z m112 -38 c0 -13 -44 -22 -79 -15 -50 10 -36 24
24 24 30 0 55 -4 55 -9z"/>
<path d="M2098 983 c-24 -6 -25 -78 -2 -87 25 -10 93 -7 115 4 30 16 26 68 -7
80 -26 10 -75 11 -106 3z m107 -42 c3 -5 -4 -13 -16 -16 -26 -9 -89 3 -89 15
0 13 97 13 105 1z"/>
<path d="M2278 979 c-23 -13 -25 -74 -2 -83 9 -3 35 -6 59 -6 64 0 75 7 75 46
0 28 -5 36 -26 44 -33 13 -84 12 -106 -1z m112 -38 c0 -15 -39 -23 -76 -16
-53 9 -40 25 21 25 30 0 55 -4 55 -9z"/>
<path d="M2468 983 c-24 -6 -25 -78 -2 -87 25 -10 93 -7 115 4 30 16 26 68 -7
80 -26 10 -75 11 -106 3z m102 -42 c0 -13 -30 -21 -55 -16 -11 2 -26 4 -32 4
-7 1 -13 6 -13 11 0 6 23 10 50 10 28 0 50 -4 50 -9z"/>
<path d="M1460 950 c0 -11 5 -20 10 -20 6 0 10 9 10 20 0 11 -4 20 -10 20 -5
0 -10 -9 -10 -20z"/>
<path d="M1506 954 c-10 -26 -7 -51 9 -64 13 -11 15 -6 15 34 0 45 -12 61 -24
30z"/>
<path d="M220 901 c0 -33 5 -63 10 -66 6 -4 10 18 10 59 0 37 -4 66 -10 66 -6
0 -10 -26 -10 -59z"/>
<path d="M265 937 c-4 -13 -5 -43 -3 -67 3 -41 6 -45 37 -54 28 -8 36 -7 47 9
17 23 18 75 2 110 -9 19 -19 25 -44 25 -27 0 -35 -5 -39 -23z m55 -57 c0 -49
-13 -73 -24 -44 -8 20 -8 68 0 88 11 29 24 5 24 -44z"/>
<path d="M370 885 c0 -57 3 -76 13 -72 8 2 12 26 12 72 0 46 -4 70 -12 73 -10
3 -13 -16 -13 -73z"/>
<path d="M421 941 c-12 -21 -15 -90 -5 -115 4 -11 19 -16 44 -16 38 0 39 1 45
43 3 23 2 56 -3 72 -7 24 -15 31 -39 33 -23 2 -34 -2 -42 -17z m55 -45 c7 -40
-13 -88 -27 -65 -10 16 -12 70 -3 93 9 23 22 10 30 -28z"/>
<path d="M530 885 c0 -43 4 -75 10 -75 6 0 10 32 10 75 0 43 -4 75 -10 75 -6
0 -10 -32 -10 -75z"/>
<path d="M571 941 c-12 -21 -15 -90 -5 -115 4 -11 19 -16 45 -16 36 0 39 2 45
35 3 19 2 51 -3 72 -7 33 -13 38 -40 41 -23 2 -34 -2 -42 -17z m55 -26 c8 -32
-4 -97 -16 -90 -5 3 -12 21 -16 39 -11 60 18 106 32 51z"/>
<path d="M680 885 c0 -43 4 -75 10 -75 6 0 10 32 10 75 0 43 -4 75 -10 75 -6
0 -10 -32 -10 -75z"/>
<path d="M723 944 c-3 -9 0 -20 8 -24 11 -7 10 -13 -6 -30 -15 -16 -17 -26 -9
-48 8 -23 15 -27 49 -27 l40 0 3 52 c4 67 -10 93 -49 93 -18 0 -32 -6 -36 -16z
m51 -20 c13 -34 3 -94 -15 -94 -5 0 -9 25 -9 55 0 53 11 72 24 39z"/>
<path d="M830 885 c0 -43 4 -75 10 -75 6 0 10 32 10 75 0 43 -4 75 -10 75 -6
0 -10 -32 -10 -75z"/>
<path d="M874 946 c-3 -7 -4 -40 -2 -72 l3 -59 40 0 40 0 3 58 c2 35 -2 64 -9
73 -15 18 -68 18 -75 0z m56 -56 c0 -46 -9 -72 -21 -64 -10 6 -12 97 -3 107
14 13 24 -6 24 -43z"/>
<path d="M980 885 c0 -43 4 -75 10 -75 6 0 10 32 10 75 0 43 -4 75 -10 75 -6
0 -10 -32 -10 -75z"/>
<path d="M1031 946 c-7 -9 -11 -38 -9 -73 3 -58 3 -58 37 -61 18 -2 38 1 44 7
15 15 12 108 -3 126 -16 19 -54 19 -69 1z m49 -56 c0 -46 -9 -72 -21 -64 -10
6 -12 97 -3 107 14 13 24 -6 24 -43z"/>
<path d="M1130 885 c0 -43 4 -75 10 -75 6 0 10 32 10 75 0 43 -4 75 -10 75 -6
0 -10 -32 -10 -75z"/>
<path d="M1176 944 c-9 -23 -7 -107 3 -122 5 -8 22 -12 42 -10 28 2 35 8 42
34 6 19 5 46 -2 72 -11 39 -14 42 -45 42 -22 0 -36 -6 -40 -16z m52 -70 c-2
-27 -7 -49 -13 -49 -11 0 -19 79 -10 103 11 30 26 -5 23 -54z"/>
<path d="M1280 885 c0 -43 4 -75 10 -75 6 0 10 32 10 75 0 43 -4 75 -10 75 -6
0 -10 -32 -10 -75z"/>
<path d="M1331 941 c-17 -30 -14 -107 5 -125 8 -9 26 -16 39 -16 25 0 45 40
45 91 0 26 -22 59 -40 59 -5 0 -15 3 -23 6 -9 3 -20 -3 -26 -15z m49 -61 c0
-49 -13 -73 -24 -44 -14 36 -3 109 15 98 5 -3 9 -27 9 -54z"/>
<path d="M1432 859 c2 -30 8 -53 13 -51 15 3 12 95 -3 100 -10 3 -12 -9 -10
-49z"/>
<path d="M1470 859 c0 -29 18 -59 35 -59 20 0 19 6 -6 46 -24 39 -29 42 -29
13z"/>
<path d="M1710 860 c0 -6 32 -10 75 -10 43 0 75 4 75 10 0 6 -32 10 -75 10
-43 0 -75 -4 -75 -10z"/>
<path d="M1890 860 c0 -6 32 -10 75 -10 43 0 75 4 75 10 0 6 -32 10 -75 10
-43 0 -75 -4 -75 -10z"/>
<path d="M2080 860 c0 -6 32 -10 75 -10 43 0 75 4 75 10 0 6 -32 10 -75 10
-43 0 -75 -4 -75 -10z"/>
<path d="M2260 860 c0 -6 32 -10 75 -10 43 0 75 4 75 10 0 6 -32 10 -75 10
-43 0 -75 -4 -75 -10z"/>
<path d="M2450 860 c0 -6 32 -10 75 -10 43 0 75 4 75 10 0 6 -32 10 -75 10
-43 0 -75 -4 -75 -10z"/>
<path d="M94 824 c3 -8 6 -20 6 -25 0 -5 5 -9 10 -9 16 0 11 37 -6 44 -12 5
-15 2 -10 -10z"/>
<path d="M1732 829 c-19 -7 -23 -15 -20 -46 l3 -38 58 -3 c67 -3 87 8 87 48 0
22 -6 30 -31 39 -38 13 -66 13 -97 0z m96 -41 c-5 -14 -70 -23 -95 -14 -28 11
-1 26 48 26 36 0 49 -4 47 -12z"/>
<path d="M1913 830 c-18 -7 -23 -18 -23 -44 0 -40 11 -46 80 -46 52 0 80 18
80 49 0 10 -6 24 -14 30 -18 15 -97 23 -123 11z m105 -42 c-3 -8 -23 -13 -53
-13 -30 0 -50 5 -52 13 -4 9 11 12 52 12 41 0 56 -3 53 -12z"/>
<path d="M2102 829 c-19 -7 -23 -15 -20 -46 l3 -38 58 -3 c67 -3 87 8 87 48 0
22 -6 30 -31 39 -38 13 -66 13 -97 0z m101 -44 c-2 -5 -25 -11 -53 -13 -40 -2
-50 0 -50 13 0 13 10 15 53 13 28 -2 51 -7 50 -13z"/>
<path d="M2290 832 c-19 -6 -26 -16 -28 -41 -2 -20 2 -37 10 -42 15 -10 99
-12 122 -3 17 7 23 69 8 78 -17 10 -87 15 -112 8z m98 -44 c-3 -8 -23 -13 -53
-13 -30 0 -50 5 -52 13 -4 9 11 12 52 12 41 0 56 -3 53 -12z"/>
<path d="M2472 829 c-19 -7 -23 -15 -20 -46 l3 -38 58 -3 c67 -3 87 8 87 48 0
22 -6 30 -31 39 -38 13 -66 13 -97 0z m98 -44 c0 -11 -12 -15 -50 -15 -38 0
-50 4 -50 15 0 11 12 15 50 15 38 0 50 -4 50 -15z"/>
<path d="M149 796 c9 -11 7 -15 -9 -19 -12 -3 -20 -13 -20 -25 0 -27 16 -37
24 -15 9 22 24 5 28 -32 2 -20 9 -31 22 -33 17 -4 18 0 12 39 -4 24 -11 48
-17 55 -7 8 -6 15 2 20 9 5 7 10 -7 15 -33 13 -48 11 -35 -5z"/>
<path d="M4210 650 c0 -136 2 -160 15 -160 13 0 15 24 15 160 0 136 -2 160
-15 160 -13 0 -15 -24 -15 -160z"/>
<path d="M4992 793 c2 -10 10 -18 18 -18 22 0 18 29 -3 33 -14 3 -18 -1 -15
-15z"/>
<path d="M6910 744 l0 -65 -26 20 c-50 39 -129 18 -160 -41 -21 -40 -13 -102
17 -134 37 -40 117 -44 153 -8 15 14 16 14 16 -5 0 -12 6 -21 15 -21 13 0 15
24 15 160 0 136 -2 160 -15 160 -12 0 -15 -14 -15 -66z m-25 -79 c53 -52 18
-145 -54 -145 -48 0 -79 23 -86 64 -7 35 14 90 37 99 34 14 80 6 103 -18z"/>
<path d="M7477 792 c-9 -10 -17 -31 -17 -45 0 -20 -5 -27 -20 -27 -11 0 -20
-7 -20 -15 0 -8 9 -15 20 -15 19 0 20 -7 20 -100 0 -82 3 -100 15 -100 12 0
15 18 15 100 l0 100 35 0 c24 0 35 5 35 15 0 10 -11 15 -35 15 -30 0 -35 3
-35 24 0 32 24 50 56 42 19 -5 25 -3 22 6 -7 22 -72 22 -91 0z"/>
<path d="M7682 793 c2 -10 10 -18 18 -18 22 0 18 29 -3 33 -14 3 -18 -1 -15
-15z"/>
<path d="M8780 744 l0 -65 -26 20 c-68 54 -174 -5 -174 -97 0 -16 10 -44 23
-63 35 -53 120 -65 161 -23 15 14 16 14 16 -5 0 -12 6 -21 15 -21 13 0 15 24
15 160 0 136 -2 160 -15 160 -12 0 -15 -14 -15 -66z m-25 -79 c53 -52 18 -145
-54 -145 -48 0 -79 23 -86 64 -7 35 14 90 37 99 34 14 80 6 103 -18z"/>
<path d="M1512 778 c-17 -17 -15 -53 3 -68 13 -11 15 -6 15 34 0 50 -1 51 -18
34z"/>
<path d="M3201 771 c-6 -10 -37 -78 -70 -150 -50 -110 -57 -131 -42 -131 12 0
24 14 34 40 l15 40 86 0 86 0 20 -40 c11 -22 27 -40 35 -40 12 0 10 10 -9 53
-13 28 -43 96 -67 150 -45 100 -67 119 -88 78z m31 -169 c-35 -2 -67 -1 -69 2
-3 3 10 40 28 82 l34 76 36 -78 36 -79 -65 -3z"/>
<path d="M6010 640 c0 -127 2 -150 15 -150 11 0 15 12 15 50 l0 50 54 0 c53 0
54 0 87 -50 20 -29 42 -50 52 -50 16 0 13 8 -17 50 l-37 51 30 24 c35 31 45
66 31 111 -16 49 -52 64 -150 64 l-80 0 0 -150z m183 102 c26 -27 26 -77 1
-103 -14 -14 -40 -21 -87 -26 l-67 -6 0 83 0 83 66 -6 c49 -3 72 -10 87 -25z"/>
<path d="M271 761 c-6 -11 -11 -42 -11 -70 0 -49 1 -50 37 -60 22 -6 41 -7 46
-2 16 16 19 95 5 121 -17 33 -62 39 -77 11z m49 -67 c0 -40 -4 -55 -12 -52
-14 5 -23 70 -14 94 12 32 26 11 26 -42z"/>
<path d="M425 763 c-19 -18 -20 -102 -2 -127 9 -12 23 -17 42 -14 23 2 31 10
39 36 14 51 -3 104 -37 113 -19 5 -32 3 -42 -8z m45 -69 c0 -40 -4 -55 -12
-52 -15 5 -22 50 -14 84 11 43 26 25 26 -32z"/>
<path d="M887 768 c-21 -11 -31 -65 -20 -109 8 -29 14 -34 43 -37 19 -2 36 2
41 10 11 16 11 109 1 124 -10 16 -47 23 -65 12z m41 -52 c5 -38 -6 -78 -18
-71 -15 10 -13 108 3 103 6 -3 13 -17 15 -32z"/>
<path d="M1460 766 c0 -8 5 -18 10 -21 6 -3 10 3 10 14 0 12 -4 21 -10 21 -5
0 -10 -6 -10 -14z"/>
<path d="M220 710 c0 -33 4 -60 10 -60 6 0 10 27 10 60 0 33 -4 60 -10 60 -6
0 -10 -27 -10 -60z"/>
<path d="M372 698 c4 -93 23 -97 23 -4 0 48 -4 71 -13 74 -10 3 -12 -13 -10
-70z"/>
<path d="M530 695 c0 -43 4 -75 10 -75 6 0 10 32 10 75 0 43 -4 75 -10 75 -6
0 -10 -32 -10 -75z"/>
<path d="M570 751 c-5 -11 -10 -36 -10 -56 0 -52 15 -75 50 -75 46 0 65 60 40
124 -12 33 -64 37 -80 7z m55 -22 c9 -26 -3 -89 -15 -89 -6 0 -10 25 -10 55 0
55 13 73 25 34z"/>
<path d="M680 695 c0 -43 4 -75 10 -75 6 0 10 32 10 75 0 43 -4 75 -10 75 -6
0 -10 -32 -10 -75z"/>
<path d="M720 744 c-13 -33 -13 -80 0 -105 7 -13 21 -19 44 -19 39 0 46 12 46
75 0 64 -7 75 -46 75 -28 0 -36 -5 -44 -26z m54 -10 c13 -34 3 -94 -15 -94 -5
0 -9 25 -9 55 0 53 11 72 24 39z"/>
<path d="M830 695 c0 -43 4 -75 10 -75 6 0 10 32 10 75 0 43 -4 75 -10 75 -6
0 -10 -32 -10 -75z"/>
<path d="M980 695 c0 -43 4 -75 10 -75 6 0 10 32 10 75 0 43 -4 75 -10 75 -6
0 -10 -32 -10 -75z"/>
<path d="M1024 757 c-3 -8 -4 -41 -2 -73 l3 -59 37 -3 c35 -3 37 -1 48 35 8
25 9 50 3 73 -8 31 -13 35 -46 38 -25 2 -39 -1 -43 -11z m51 -60 c0 -65 -19
-64 -23 2 -2 40 0 52 10 49 8 -3 13 -22 13 -51z"/>
<path d="M1130 695 c0 -43 4 -75 10 -75 6 0 10 32 10 75 0 43 -4 75 -10 75 -6
0 -10 -32 -10 -75z"/>
<path d="M1176 755 c-9 -24 -7 -108 3 -123 5 -8 22 -12 42 -10 28 2 35 8 43
36 6 20 6 48 0 70 -8 33 -13 37 -45 40 -26 2 -38 -1 -43 -13z m52 -55 c-4 -60
-22 -71 -26 -16 -4 43 2 66 18 66 7 0 10 -19 8 -50z"/>
<path d="M1280 695 c0 -43 4 -75 10 -75 6 0 10 32 10 75 0 43 -4 75 -10 75 -6
0 -10 -32 -10 -75z"/>
<path d="M1326 754 c-8 -22 -7 -107 2 -121 4 -6 20 -13 37 -15 23 -2 32 2 42
22 19 37 16 87 -7 110 -24 24 -65 26 -74 4z m54 -60 c0 -40 -4 -55 -12 -52
-14 5 -23 70 -14 94 12 32 26 11 26 -42z"/>
<path d="M4740 745 c0 -18 -5 -25 -20 -25 -11 0 -20 -7 -20 -15 0 -8 9 -15 20
-15 18 0 20 -7 20 -83 0 -97 14 -121 71 -115 41 4 53 29 12 26 -47 -3 -53 6
-53 93 l0 79 35 0 c24 0 35 5 35 15 0 10 -11 15 -35 15 -31 0 -35 3 -35 25 0
16 -6 25 -15 25 -9 0 -15 -9 -15 -25z"/>
<path d="M1430 676 c0 -43 3 -56 15 -56 11 0 15 12 15 44 0 26 -6 48 -15 56
-13 11 -15 5 -15 -44z"/>
<path d="M1710 710 c0 -6 32 -10 75 -10 43 0 75 4 75 10 0 6 -32 10 -75 10
-43 0 -75 -4 -75 -10z"/>
<path d="M1890 710 c0 -6 32 -10 75 -10 43 0 75 4 75 10 0 6 -32 10 -75 10
-43 0 -75 -4 -75 -10z"/>
<path d="M2080 710 c0 -6 32 -10 75 -10 43 0 75 4 75 10 0 6 -32 10 -75 10
-43 0 -75 -4 -75 -10z"/>
<path d="M2260 710 c0 -6 32 -10 75 -10 43 0 75 4 75 10 0 6 -32 10 -75 10
-43 0 -75 -4 -75 -10z"/>
<path d="M2450 710 c0 -6 32 -10 75 -10 43 0 75 4 75 10 0 6 -32 10 -75 10
-43 0 -75 -4 -75 -10z"/>
<path d="M3500 605 c0 -96 3 -115 15 -115 12 0 15 13 15 59 0 102 24 141 88
141 49 0 62 -26 62 -118 0 -66 3 -82 15 -82 12 0 15 16 15 88 0 75 -3 92 -20
110 -36 39 -102 41 -142 5 -17 -15 -18 -14 -18 5 0 13 -6 22 -15 22 -12 0 -15
-19 -15 -115z"/>
<path d="M3896 704 c-19 -11 -25 -19 -18 -26 7 -7 17 -6 30 1 28 15 87 14 99
-1 6 -7 12 -23 15 -34 5 -20 1 -22 -58 -26 -72 -4 -96 -21 -96 -64 0 -55 87
-85 140 -48 20 14 22 14 22 0 0 -9 7 -16 16 -16 15 0 16 11 12 92 -5 84 -8 94
-32 115 -32 27 -87 30 -130 7z m132 -126 c5 -24 -42 -68 -73 -68 -31 0 -67 34
-58 56 13 36 125 46 131 12z"/>
<path d="M4396 663 c82 -182 79 -173 63 -202 -12 -20 -23 -26 -50 -26 -18 0
-35 -4 -36 -10 -4 -17 42 -23 73 -10 25 10 39 34 92 153 34 77 62 143 62 146
0 3 -6 6 -13 6 -7 0 -30 -41 -52 -90 -21 -50 -41 -93 -45 -95 -3 -2 -24 38
-45 88 -26 60 -46 93 -58 95 -15 3 -14 -3 9 -55z"/>
<path d="M4990 605 c0 -96 3 -115 15 -115 12 0 15 19 15 115 0 96 -3 115 -15
115 -12 0 -15 -19 -15 -115z"/>
<path d="M5218 705 c-56 -32 -73 -105 -38 -163 22 -36 54 -52 105 -52 40 0 86
33 69 50 -8 8 -14 7 -24 -5 -16 -19 -79 -20 -107 0 -44 31 -35 131 12 149 30
11 82 6 95 -9 9 -11 16 -13 24 -5 33 33 -85 64 -136 35z"/>
<path d="M5516 699 c-51 -40 -26 -90 53 -108 24 -5 51 -17 60 -25 14 -15 14
-17 -1 -32 -19 -19 -92 -21 -114 -3 -13 10 -17 10 -25 -2 -12 -19 32 -38 89
-39 33 0 49 6 67 25 14 13 25 31 25 40 0 25 -35 52 -78 60 -56 9 -80 28 -66
52 9 14 24 18 67 18 65 1 81 10 43 25 -43 16 -91 12 -120 -11z"/>
<path d="M6433 710 c-29 -12 -63 -67 -63 -103 0 -64 54 -117 120 -117 41 0 96
28 82 42 -7 7 -17 6 -30 -1 -51 -27 -127 -2 -134 44 -3 19 3 20 90 23 91 3 92
3 92 28 0 16 -13 39 -34 60 -36 36 -75 43 -123 24z m104 -42 c42 -39 31 -48
-57 -48 -71 0 -79 2 -73 18 20 55 87 71 130 30z"/>
<path d="M7153 710 c-29 -12 -63 -67 -63 -103 0 -64 54 -117 120 -117 41 0 96
28 82 42 -7 7 -17 6 -30 -1 -51 -27 -127 -2 -134 44 -3 19 3 20 90 23 91 3 92
3 92 28 0 16 -13 39 -34 60 -36 36 -75 43 -123 24z m104 -42 c42 -39 31 -48
-57 -48 -44 0 -80 4 -80 9 0 4 9 20 21 35 27 34 82 36 116 4z"/>
<path d="M7680 605 c0 -96 3 -115 15 -115 12 0 15 19 15 115 0 96 -3 115 -15
115 -12 0 -15 -19 -15 -115z"/>
<path d="M7880 605 c0 -96 3 -115 15 -115 12 0 15 13 15 59 0 102 24 141 88
141 49 0 62 -26 62 -118 0 -66 3 -82 15 -82 12 0 15 16 15 88 0 75 -3 92 -20
110 -36 39 -102 41 -142 5 -17 -15 -18 -14 -18 5 0 13 -6 22 -15 22 -12 0 -15
-19 -15 -115z"/>
<path d="M8293 710 c-29 -12 -63 -67 -63 -103 0 -64 54 -117 120 -117 41 0 96
28 82 42 -7 7 -17 6 -30 -1 -51 -27 -127 -2 -134 44 -3 19 3 20 90 23 91 3 92
3 92 28 0 16 -13 39 -34 60 -36 36 -75 43 -123 24z m104 -42 c42 -39 31 -48
-57 -48 -44 0 -80 4 -80 9 0 4 9 20 21 35 27 34 82 36 116 4z"/>
<path d="M1470 667 c0 -24 35 -65 46 -55 7 7 -21 64 -36 73 -6 3 -10 -4 -10
-18z"/>
<path d="M1732 680 c-19 -8 -23 -16 -20 -47 3 -38 3 -38 52 -41 75 -5 96 3 96
37 0 16 -7 34 -15 41 -19 16 -85 22 -113 10z m96 -47 c2 -9 -11 -13 -47 -13
-48 0 -74 13 -49 24 23 9 91 1 96 -11z"/>
<path d="M1912 680 c-19 -8 -23 -16 -20 -47 l3 -38 70 0 c67 0 70 1 79 28 8
21 6 31 -5 42 -18 19 -97 28 -127 15z m103 -45 c0 -11 -69 -19 -92 -11 -8 3
-11 11 -8 16 8 14 100 9 100 -5z"/>
<path d="M2102 679 c-19 -7 -23 -15 -20 -46 3 -38 3 -38 52 -41 79 -5 96 3 96
42 0 29 -5 36 -31 45 -38 13 -66 13 -97 0z m103 -44 c0 -12 -79 -19 -103 -10
-14 5 -14 7 -2 16 19 12 105 7 105 -6z"/>
<path d="M2282 680 c-19 -8 -23 -16 -20 -47 l3 -38 70 0 70 0 3 34 c2 18 0 37
-5 42 -14 14 -96 20 -121 9z m103 -45 c0 -11 -69 -19 -92 -11 -8 3 -11 11 -8
16 8 14 100 9 100 -5z"/>
<path d="M2472 679 c-19 -7 -23 -15 -20 -46 3 -38 3 -38 52 -41 79 -5 96 3 96
42 0 29 -5 36 -31 45 -38 13 -66 13 -97 0z m96 -46 c2 -9 -11 -13 -47 -13 -39
0 -51 4 -51 16 0 12 10 14 47 12 26 -2 48 -9 51 -15z"/>
<path d="M90 643 c0 -5 4 -15 10 -23 11 -18 25 -7 17 15 -6 15 -27 21 -27 8z"/>
<path d="M151 614 c10 -13 9 -16 -9 -21 -23 -5 -28 -28 -13 -51 6 -10 10 -8
14 8 8 32 27 15 27 -25 0 -20 6 -35 15 -39 24 -9 29 19 13 69 -10 30 -12 45
-4 48 6 2 -5 9 -23 15 -29 10 -32 10 -20 -4z"/>
<path d="M1460 580 c0 -11 5 -20 10 -20 6 0 10 9 10 20 0 11 -4 20 -10 20 -5
0 -10 -9 -10 -20z"/>
<path d="M1506 584 c-10 -26 -7 -51 9 -64 13 -11 15 -6 15 34 0 45 -12 61 -24
30z"/>
<path d="M220 531 c0 -33 5 -63 10 -66 6 -4 10 18 10 59 0 37 -4 66 -10 66 -6
0 -10 -26 -10 -59z"/>
<path d="M272 578 c-7 -7 -12 -36 -12 -65 0 -56 14 -73 60 -73 35 0 52 73 28
125 -12 27 -54 35 -76 13z m48 -69 c0 -36 -4 -49 -12 -47 -15 5 -22 50 -13 85
9 39 25 16 25 -38z"/>
<path d="M370 516 c0 -62 3 -76 15 -76 13 0 15 12 13 72 -2 46 -7 73 -15 76
-10 3 -13 -16 -13 -72z"/>
<path d="M421 571 c-12 -21 -15 -90 -5 -115 4 -11 19 -16 45 -16 36 0 38 2 45
37 4 20 3 52 -2 72 -8 31 -14 36 -41 39 -23 2 -34 -2 -42 -17z m49 -62 c0 -36
-4 -49 -12 -47 -15 5 -22 50 -13 85 9 39 25 16 25 -38z"/>
<path d="M528 568 c-6 -87 -3 -128 9 -128 10 0 13 20 13 75 0 43 -4 75 -10 75
-5 0 -11 -10 -12 -22z"/>
<path d="M571 571 c-12 -21 -15 -90 -5 -115 4 -11 19 -16 45 -16 36 0 38 2 45
37 4 20 3 52 -2 72 -8 31 -14 36 -41 39 -23 2 -34 -2 -42 -17z m49 -56 c0 -30
-4 -55 -10 -55 -11 0 -14 93 -3 103 12 12 13 8 13 -48z"/>
<path d="M680 515 c0 -43 4 -75 10 -75 6 0 10 32 10 75 0 43 -4 75 -10 75 -6
0 -10 -32 -10 -75z"/>
<path d="M720 564 c-11 -29 -13 -68 -4 -102 6 -20 12 -23 48 -20 l41 3 3 52
c4 67 -10 93 -49 93 -22 0 -32 -6 -39 -26z m58 -33 c5 -30 -6 -71 -18 -71 -6
0 -10 23 -10 51 0 36 4 49 13 47 6 -3 13 -15 15 -27z"/>
<path d="M830 515 c0 -43 4 -75 10 -75 6 0 10 32 10 75 0 43 -4 75 -10 75 -6
0 -10 -32 -10 -75z"/>
<path d="M869 563 c-6 -16 -7 -49 -4 -76 l7 -48 42 3 41 3 3 58 c4 67 -8 87
-49 87 -23 0 -32 -6 -40 -27z m59 -60 c-5 -58 -28 -54 -28 5 0 27 3 52 7 56
12 12 24 -23 21 -61z"/>
<path d="M980 515 c0 -43 4 -75 10 -75 6 0 10 32 10 75 0 43 -4 75 -10 75 -6
0 -10 -32 -10 -75z"/>
<path d="M1025 567 c-4 -13 -5 -46 -3 -73 l3 -49 39 0 c36 0 40 3 48 33 5 20
4 48 -2 72 -10 37 -14 40 -45 40 -28 0 -36 -5 -40 -23z m53 -57 c-4 -63 -28
-65 -28 -2 0 27 3 52 7 56 14 14 24 -13 21 -54z"/>
<path d="M1130 515 c0 -43 4 -75 10 -75 6 0 10 32 10 75 0 43 -4 75 -10 75 -6
0 -10 -32 -10 -75z"/>
<path d="M1181 576 c-7 -9 -11 -38 -9 -73 l3 -58 40 0 c36 0 40 3 49 33 6 22
5 45 -3 72 -10 34 -16 40 -40 40 -16 0 -34 -6 -40 -14z m49 -67 c0 -36 -4 -49
-12 -47 -14 5 -23 70 -14 95 11 28 26 1 26 -48z"/>
<path d="M1280 515 c0 -76 13 -100 24 -45 7 37 -3 120 -15 120 -5 0 -9 -34 -9
-75z"/>
<path d="M1330 571 c-12 -23 -13 -100 -2 -118 4 -7 22 -15 39 -19 29 -6 32 -3
43 31 18 56 6 101 -32 114 -39 14 -35 14 -48 -8z m50 -62 c0 -36 -4 -49 -12
-47 -15 5 -22 50 -13 85 9 39 25 16 25 -38z"/>
<path d="M1710 555 c0 -9 10 -15 28 -16 20 -1 22 -2 7 -6 -29 -7 -42 -21 -47
-48 -6 -29 5 -40 47 -48 52 -10 86 3 100 37 16 37 5 55 -34 57 -22 1 -20 3 8
8 19 3 36 12 39 19 3 9 -16 12 -72 12 -61 0 -76 -3 -76 -15z m118 -72 c2 -9
-11 -13 -47 -13 -50 0 -77 14 -44 23 32 9 86 2 91 -10z"/>
<path d="M1890 555 c0 -11 11 -15 38 -16 38 -1 36 -3 -9 -13 -30 -6 -47 -49
-29 -71 14 -17 72 -25 107 -16 20 5 30 16 37 39 11 38 8 42 -36 52 l-33 8 38
1 c26 1 37 6 37 16 0 12 -15 15 -75 15 -60 0 -75 -3 -75 -15z m114 -61 c28
-11 6 -24 -39 -24 -67 0 -70 27 -3 29 14 1 33 -2 42 -5z"/>
<path d="M2080 555 c0 -13 12 -15 72 -13 46 2 73 7 76 16 3 9 -16 12 -72 12
-62 0 -76 -3 -76 -15z"/>
<path d="M2262 558 c3 -9 30 -14 76 -16 60 -2 72 0 72 13 0 12 -14 15 -76 15
-56 0 -75 -3 -72 -12z"/>
<path d="M2450 555 c0 -13 12 -15 72 -13 46 2 73 7 76 16 3 9 -16 12 -72 12
-62 0 -76 -3 -76 -15z"/>
<path d="M1432 489 c2 -30 8 -53 13 -51 15 3 12 95 -3 100 -10 3 -12 -9 -10
-49z"/>
<path d="M2080 509 c-21 -38 -9 -63 35 -71 56 -9 83 0 101 34 22 43 6 58 -67
58 -49 0 -60 -3 -69 -21z m118 -26 c2 -9 -11 -13 -47 -13 -48 0 -61 7 -44 24
12 11 86 2 91 -11z"/>
<path d="M2274 522 c-6 -4 -14 -19 -17 -33 -9 -36 10 -50 72 -51 40 -1 55 3
66 18 19 25 19 60 -1 68 -22 8 -107 7 -120 -2z m100 -28 c29 -11 5 -24 -45
-24 -68 0 -65 27 3 29 14 1 33 -2 42 -5z"/>
<path d="M2451 516 c-7 -8 -11 -27 -9 -43 3 -24 9 -28 46 -35 24 -4 54 -3 68
2 30 12 50 56 33 76 -16 19 -123 19 -138 0z m117 -33 c2 -9 -11 -13 -47 -13
-48 0 -67 12 -38 24 22 9 80 1 85 -11z"/>
<path d="M1470 486 c0 -25 36 -73 47 -63 6 6 -26 75 -38 83 -5 3 -9 -6 -9 -20z"/>
<path d="M1700 404 c0 -12 10 -14 52 -12 74 4 77 28 4 28 -44 0 -56 -3 -56
-16z"/>
<path d="M1880 405 c0 -11 12 -15 49 -15 31 0 53 5 61 15 11 13 5 15 -49 15
-48 0 -61 -3 -61 -15z"/>
<path d="M2070 405 c0 -11 12 -15 49 -15 31 0 53 5 61 15 11 13 5 15 -49 15
-48 0 -61 -3 -61 -15z"/>
<path d="M2260 405 c0 -11 12 -15 44 -15 26 0 48 6 56 15 11 13 5 15 -44 15
-43 0 -56 -3 -56 -15z"/>
<path d="M2440 405 c0 -11 12 -15 49 -15 31 0 53 5 61 15 11 13 5 15 -49 15
-48 0 -61 -3 -61 -15z"/>
<path d="M1460 396 c0 -8 5 -18 10 -21 6 -3 10 3 10 14 0 12 -4 21 -10 21 -5
0 -10 -6 -10 -14z"/>
<path d="M1507 403 c-12 -12 -7 -50 8 -63 13 -11 15 -7 15 29 0 38 -8 50 -23
34z"/>
<path d="M1645 380 c-3 -5 3 -10 14 -10 12 0 21 5 21 10 0 6 -6 10 -14 10 -8
0 -18 -4 -21 -10z"/>
<path d="M1825 380 c-4 -6 5 -10 19 -10 14 0 26 5 26 10 0 6 -9 10 -19 10 -11
0 -23 -4 -26 -10z"/>
<path d="M2015 380 c-3 -5 3 -10 14 -10 12 0 21 5 21 10 0 6 -6 10 -14 10 -8
0 -18 -4 -21 -10z"/>
<path d="M2195 380 c-4 -6 5 -10 19 -10 14 0 26 5 26 10 0 6 -9 10 -19 10 -11
0 -23 -4 -26 -10z"/>
<path d="M2385 380 c-3 -5 3 -10 14 -10 12 0 21 5 21 10 0 6 -6 10 -14 10 -8
0 -18 -4 -21 -10z"/>
<path d="M1707 362 c-35 -39 -18 -42 38 -7 l40 24 -31 1 c-18 0 -38 -8 -47
-18z"/>
<path d="M1898 369 c-17 -9 -25 -39 -12 -39 9 0 74 41 74 46 0 8 -45 3 -62 -7z"/>
<path d="M2075 360 c-10 -11 -16 -23 -13 -26 6 -6 88 33 88 41 0 14 -59 2 -75
-15z"/>
<path d="M2268 369 c-17 -9 -25 -39 -12 -39 9 0 74 41 74 46 0 8 -45 3 -62 -7z"/>
<path d="M2452 368 c-7 -7 -12 -18 -12 -25 0 -10 11 -8 40 7 22 11 40 23 40
25 0 10 -57 4 -68 -7z"/>
<path d="M1617 348 c-29 -16 -19 -28 24 -28 26 0 39 4 37 12 -6 17 -42 27 -61
16z"/>
<path d="M1790 335 c-11 -13 -6 -15 34 -15 45 0 61 12 30 24 -26 10 -51 7 -64
-9z"/>
<path d="M1970 336 c-11 -14 -7 -16 35 -16 33 0 45 4 43 13 -7 18 -63 21 -78
3z"/>
<path d="M2160 336 c-11 -14 -7 -16 35 -16 33 0 45 4 43 13 -7 18 -63 21 -78
3z"/>
<path d="M2347 344 c-16 -16 -5 -24 34 -24 28 0 39 4 37 13 -5 13 -60 22 -71
11z"/>
</g>
</svg>
